<svg width="260" height="234" viewBox="0 0 260 234" fill="none" xmlns="http://www.w3.org/2000/svg">
<path d="M38.0078 146C38.0078 146.552 38.4555 147 39.0078 147H44.0078C44.5601 147 45.0078 147.447 45.0078 148V153C45.0078 153.552 45.4555 154 46.0078 154H49.0078C49.5601 154 50.0078 154.447 50.0078 155V161C50.0078 161.552 49.5601 162 49.0078 162H46.0078C45.4555 162 45.0078 162.447 45.0078 163V168C45.0078 168.552 44.5601 169 44.0078 169H39.0078C38.4555 169 38.0078 169.447 38.0078 170V174C38.0078 174.552 37.5601 175 37.0078 175H31.0078C30.4555 175 30.0078 174.552 30.0078 174V170C30.0078 169.447 29.5601 169 29.0078 169H24.0078C23.4555 169 23.0078 168.552 23.0078 168V163C23.0078 162.447 22.5601 162 22.0078 162H19.0078C18.4555 162 18.0078 161.552 18.0078 161V155C18.0078 154.447 18.4555 154 19.0078 154H22.0078C22.5601 154 23.0078 153.552 23.0078 153V148C23.0078 147.447 23.4555 147 24.0078 147H29.0078C29.5601 147 30.0078 146.552 30.0078 146V142.2C30.0078 141.648 30.4555 141.2 31.0078 141.2H37.0078C37.5601 141.2 38.0078 141.648 38.0078 142.2V146ZM31.0078 154C31.0078 154.552 30.5601 155 30.0078 155H27.0078C26.4555 155 26.0078 155.447 26.0078 156V160C26.0078 160.552 26.4555 161 27.0078 161H30.0078C30.5601 161 31.0078 161.447 31.0078 162V166C31.0078 166.552 31.4555 167 32.0078 167H36.0078C36.5601 167 37.0078 166.552 37.0078 166V162C37.0078 161.447 37.4555 161 38.0078 161H41.0078C41.5601 161 42.0078 160.552 42.0078 160V156C42.0078 155.447 41.5601 155 41.0078 155H38.0078C37.4555 155 37.0078 154.552 37.0078 154V150.2C37.0078 149.648 36.5601 149.2 36.0078 149.2H32.0078C31.4555 149.2 31.0078 149.648 31.0078 150.2V154Z" fill="url(#paint0_linear_670_14729)"/>
<path d="M224.008 145C224.008 145.552 224.456 146 225.008 146H230C230.552 146 231 146.447 231 147V153C231 153.552 230.552 154 230 154H225.008C224.456 154 224.008 154.447 224.008 155V160C224.008 160.552 223.56 161 223.008 161H217.008C216.456 161 216.008 160.552 216.008 160V155C216.008 154.447 215.56 154 215.008 154H210.008C209.456 154 209.008 153.552 209.008 153V147C209.008 146.447 209.456 146 210.008 146H215.008C215.56 146 216.008 145.552 216.008 145V140C216.008 139.447 216.456 139 217.008 139H223.008C223.56 139 224.008 139.447 224.008 140V145ZM217.008 152C217.008 152.552 217.456 153 218.008 153H222C222.552 153 223 152.552 223 152V148C223 147.447 222.552 147 222 147H218.008C217.456 147 217.008 147.447 217.008 148V152Z" fill="url(#paint1_linear_670_14729)"/>
<path d="M43 217C43 217.552 42.5523 218 42 218H36C35.4477 218 35 217.552 35 217V211C35 210.448 35.4477 210 36 210H42C42.5523 210 43 210.448 43 211V217ZM144 16C144.552 16 145 16.4477 145 17V21C145 21.5523 145.448 22 146 22H150C150.552 22 151 22.4477 151 23V27C151 27.5523 151.448 28 152 28H156C156.552 28 157 28.4477 157 29V33C157 33.5523 157.448 34 158 34H162C162.552 34 163 34.4477 163 35V79C163 79.5523 163.448 80 164 80H168C168.552 80 169 80.4477 169 81V85C169 85.5523 169.448 86 170 86H174C174.552 86 175 86.4477 175 87V91C175 91.5523 175.448 92 176 92H180C180.552 92 181 92.4477 181 93V123C181 123.552 180.552 124 180 124H174C173.448 124 173 123.552 173 123V117C173 116.448 172.552 116 172 116H158C157.448 116 157 116.448 157 117C157 117.552 156.552 118 156 118H152C151.448 118 151 118.448 151 119V131C151 131.552 150.552 132 150 132H147C146.448 132 146 132.448 146 133V153C146 153.552 146.448 154 147 154H153C153.552 154 154 154.448 154 155V159C154 159.552 154.448 160 155 160H159C159.552 160 160 160.448 160 161V173C160 173.552 160.448 174 161 174H163C163.552 174 164 173.552 164 173V169C164 168.448 164.448 168 165 168H187C187.552 168 188 168.448 188 169V173C188 173.552 188.448 174 189 174H195C195.552 174 196 174.448 196 175V179C196 179.552 196.448 180 197 180H201C201.552 180 202 180.448 202 181V203C202 203.552 201.552 204 201 204H197C196.448 204 196 204.448 196 205V209C196 209.552 196.448 210 197 210H219C219.552 210 220 210.448 220 211V217C220 217.552 219.552 218 219 218H181C180.448 218 180 217.552 180 217V211C180 210.448 180.448 210 181 210H187C187.552 210 188 209.552 188 209V203C188 202.448 188.448 202 189 202H193C193.552 202 194 201.552 194 201V183C194 182.448 193.552 182 193 182H189C188.448 182 188 181.552 188 181V177C188 176.448 187.552 176 187 176H167C166.448 176 166 176.448 166 177V181C166 181.552 165.552 182 165 182H159C158.448 182 158 181.552 158 181V177C158 176.448 157.552 176 157 176H153C152.448 176 152 175.552 152 175V163C152 162.448 151.552 162 151 162H139C138.448 162 138 161.552 138 161V131C138 130.448 138.448 130 139 130H142C142.552 130 143 129.552 143 129V125C143 124.448 142.552 124 142 124H122C121.448 124 121 124.448 121 125V129C121 129.552 121.448 130 122 130H125C125.552 130 126 130.448 126 131V185C126 185.552 125.552 186 125 186H119C118.448 186 118 185.552 118 185V171C118 170.448 117.552 170 117 170H105C104.448 170 104 170.448 104 171V183C104 183.552 103.552 184 103 184H99C98.4477 184 98 184.448 98 185V189C98 189.552 97.5523 190 97 190H91C90.4477 190 90 189.552 90 189V185C90 184.448 89.5523 184 89 184H71C70.4477 184 70 184.448 70 185V189C70 189.552 69.5523 190 69 190H65C64.4477 190 64 190.448 64 191V201C64 201.552 64.4477 202 65 202H69C69.5523 202 70 202.448 70 203V209C70 209.552 70.4477 210 71 210H77C77.5523 210 78 210.448 78 211V217C78 217.552 77.5523 218 77 218H55C54.4477 218 54 217.552 54 217V211C54 210.448 54.4477 210 55 210H61C61.5523 210 62 209.552 62 209V205C62 204.448 61.5523 204 61 204H57C56.4477 204 56 203.552 56 203V189C56 188.448 56.4477 188 57 188H61C61.5523 188 62 187.552 62 187V183C62 182.448 62.4477 182 63 182H67C67.5523 182 68 181.552 68 181V177C68 176.448 68.4477 176 69 176H91C91.5523 176 92 176.448 92 177V181C92 181.552 92.4477 182 93 182H95C95.5523 182 96 181.552 96 181V169C96 168.448 96.4477 168 97 168H101C101.552 168 102 167.552 102 167V163C102 162.448 102.448 162 103 162H117C117.552 162 118 161.552 118 161V133C118 132.448 117.552 132 117 132H114C113.448 132 113 131.552 113 131V119C113 118.448 112.552 118 112 118H108C107.448 118 107 117.552 107 117C107 116.448 106.552 116 106 116H92C91.4477 116 91 116.448 91 117V123C91 123.552 90.5523 124 90 124H84C83.4477 124 83 123.552 83 123V93C83 92.4477 83.4477 92 84 92H88C88.5523 92 89 91.5523 89 91V87C89 86.4477 89.4477 86 90 86H94C94.5523 86 95 85.5523 95 85V81C95 80.4477 95.4477 80 96 80H100C100.552 80 101 79.5523 101 79V35C101 34.4477 101.448 34 102 34H106C106.552 34 107 33.5523 107 33V29C107 28.4477 107.448 28 108 28H112C112.552 28 113 27.5523 113 27V23C113 22.4477 113.448 22 114 22H118C118.552 22 119 21.5523 119 21V17C119 16.4477 119.448 16 120 16H144ZM108 206C108 206.552 107.552 207 107 207H103C102.448 207 102 207.448 102 208V212C102 212.552 101.552 213 101 213H95C94.4477 213 94 212.552 94 212V206C94 205.448 94.4477 205 95 205H99C99.5523 205 100 204.552 100 204V200C100 199.448 100.448 199 101 199H107C107.552 199 108 199.448 108 200V206ZM162 195C162 195.552 162.448 196 163 196H167C167.552 196 168 196.448 168 197V211C168 211.552 167.552 212 167 212H161C160.448 212 160 211.552 160 211V199C160 198.448 159.552 198 159 198H147C146.448 198 146 197.552 146 197V191C146 190.448 146.448 190 147 190H161C161.552 190 162 190.448 162 191V195ZM109 109C109 109.552 109.448 110 110 110H114C114.552 110 115 110.448 115 111V115C115 115.552 115.448 116 116 116H148C148.552 116 149 115.552 149 115V111C149 110.448 149.448 110 150 110H154C154.552 110 155 109.552 155 109V59C155 58.4477 154.552 58 154 58H110C109.448 58 109 58.4477 109 59V109ZM97 93C97 93.5523 96.5523 94 96 94H92C91.4477 94 91 94.4477 91 95V107C91 107.552 91.4477 108 92 108H100C100.552 108 101 107.552 101 107V89C101 88.4477 100.552 88 100 88H98C97.4477 88 97 88.4477 97 89V93ZM163 107C163 107.552 163.448 108 164 108H172C172.552 108 173 107.552 173 107V95C173 94.4477 172.552 94 172 94H168C167.448 94 167 93.5523 167 93V89C167 88.4477 166.552 88 166 88H164C163.448 88 163 88.4477 163 89V107ZM141 73C141 73.5523 141.448 74 142 74H146C146.552 74 147 74.4477 147 75V89C147 89.5523 146.552 90 146 90H141C140.448 90 140 90.4477 140 91V95C140 95.5523 139.552 96 139 96H125C124.448 96 124 95.5523 124 95V91C124 90.4477 123.552 90 123 90H118C117.448 90 117 89.5523 117 89V75C117 74.4477 117.448 74 118 74H124C124.552 74 125 73.5523 125 73V69C125 68.4477 125.448 68 126 68H140C140.552 68 141 68.4477 141 69V73ZM125 87C125 87.5523 125.448 88 126 88H138C138.552 88 139 87.5523 139 87V77C139 76.4477 138.552 76 138 76H126C125.448 76 125 76.4477 125 77V87ZM122 24C121.448 24 121 24.4477 121 25V29C121 29.5523 120.552 30 120 30H116C115.448 30 115 30.4477 115 31V35C115 35.5523 114.552 36 114 36H110C109.448 36 109 36.4477 109 37V49C109 49.5523 109.448 50 110 50H154C154.552 50 155 49.5523 155 49V37C155 36.4477 154.552 36 154 36H150C149.448 36 149 35.5523 149 35V31C149 30.4477 148.552 30 148 30H144C143.448 30 143 29.5523 143 29V25C143 24.4477 142.552 24 142 24H122Z" fill="url(#paint2_linear_670_14729)"/>
<defs>
<linearGradient id="paint0_linear_670_14729" x1="17.6303" y1="175.643" x2="70.0777" y2="168.256" gradientUnits="userSpaceOnUse">
<stop stop-color="#FF9B00"/>
<stop offset="1" stop-color="#FE6150"/>
</linearGradient>
<linearGradient id="paint1_linear_670_14729" x1="208.748" y1="161.418" x2="244.713" y2="156.07" gradientUnits="userSpaceOnUse">
<stop stop-color="#FF9B00"/>
<stop offset="1" stop-color="#FE6150"/>
</linearGradient>
<linearGradient id="paint2_linear_670_14729" x1="32.8175" y1="221.844" x2="336.408" y2="180.481" gradientUnits="userSpaceOnUse">
<stop stop-color="#FF9B00"/>
<stop offset="1" stop-color="#FE6150"/>
</linearGradient>
</defs>
</svg>
