<svg width="370" height="233" viewBox="0 0 370 233" fill="none" xmlns="http://www.w3.org/2000/svg">
<path d="M306.664 110.156C305.504 110.156 304.391 109.695 303.571 108.875L265.313 70.6178C264.493 69.7976 263.381 69.3367 262.221 69.3367H108.26C107.115 69.3367 106.016 68.8873 105.199 68.0857L66.121 29.7712C65.3034 28.9696 64.2043 28.5203 63.0593 28.5203L0.52626 28.5203C0.349492 28.5203 0.173701 28.5085 7.13686e-06 28.4874L8.38209e-06 0L370 1.61732e-05V110.156L306.664 110.156Z" fill="white"/>
<path d="M128.282 102.69C131.037 105.445 129.085 110.156 125.189 110.156L0.526256 110.156C0.349489 110.156 0.173698 110.144 3.56846e-06 110.123L5.09631e-06 75.1699H98.9498C100.11 75.1699 101.222 75.6309 102.042 76.451L128.282 102.69Z" fill="white"/>
<path d="M128.282 184.327C131.037 187.082 129.085 191.793 125.189 191.793H0.526252C0.349485 191.793 0.173694 191.781 0 191.76L1.5279e-06 156.805H98.9485C100.108 156.805 101.221 157.266 102.041 158.087L128.282 184.327Z" fill="white"/>
<path d="M282.294 197.623C286.19 197.623 288.141 202.334 285.386 205.089L259.144 231.331C258.324 232.151 257.211 232.612 256.052 232.612L128.811 232.612C124.914 232.612 122.963 227.901 125.718 225.146L151.96 198.904C152.781 198.084 153.893 197.623 155.053 197.623L282.294 197.623Z" fill="white"/>
<path d="M282.294 115.986C286.19 115.986 288.141 120.697 285.386 123.452L259.146 149.693C258.325 150.513 257.213 150.974 256.053 150.974H128.812C124.916 150.974 122.965 146.263 125.72 143.507L151.96 117.267C152.781 116.447 153.893 115.986 155.053 115.986H282.294Z" fill="white"/>
<path d="M306.664 191.793C305.504 191.793 304.391 191.332 303.571 190.512L277.33 164.272C274.575 161.516 276.527 156.805 280.423 156.805L370 156.805V191.793H306.664Z" fill="white"/>
</svg>
