<svg width="679" height="528" viewBox="0 0 679 528" fill="none" xmlns="http://www.w3.org/2000/svg">
<path d="M157.195 90.3828C157.195 92.038 156.538 93.6255 155.367 94.7959L100.773 149.391C99.6031 150.561 98.9453 152.149 98.9453 153.804V373.51C98.9453 375.144 98.3041 376.712 97.1602 377.879L42.4844 433.644C41.3404 434.81 40.6992 436.379 40.6992 438.013V527.249C40.6992 527.501 40.6824 527.752 40.6523 528H0V0H157.195V90.3828Z" fill="white"/>
<path d="M146.541 344.938C150.473 341.007 157.195 343.792 157.195 349.352V527.249C157.195 527.501 157.178 527.752 157.148 528H107.27V386.796C107.27 385.141 107.927 383.553 109.098 382.383L146.541 344.938Z" fill="white"/>
<path d="M263.039 344.938C266.971 341.007 273.693 343.792 273.693 349.352V527.249C273.693 527.501 273.677 527.752 273.646 528H223.766V386.798C223.766 385.143 224.423 383.555 225.594 382.385L263.039 344.938Z" fill="white"/>
<path d="M379.535 344.942C383.467 341.011 390.189 343.795 390.189 349.355V527.253C390.189 527.504 390.172 527.753 390.143 528H340.264V386.8C340.264 385.145 340.921 383.557 342.092 382.387L379.535 344.942Z" fill="white"/>
<path d="M496.033 344.94C499.965 341.009 506.687 343.793 506.688 349.354V527.251C506.688 527.503 506.671 527.753 506.641 528H456.76V386.8C456.76 385.145 457.418 383.557 458.588 382.387L496.033 344.94Z" fill="white"/>
<path d="M612.533 344.938C616.465 341.007 623.187 343.792 623.188 349.352V527.249C623.188 527.501 623.171 527.752 623.141 528H573.258V386.8C573.258 385.145 573.916 383.557 575.086 382.387L612.533 344.938Z" fill="white"/>
<path d="M282.014 125.159C282.014 119.599 288.736 116.815 292.668 120.746L330.115 158.194C331.286 159.365 331.943 160.952 331.943 162.607V344.184C331.943 349.744 325.221 352.528 321.289 348.597L283.842 311.148C282.671 309.978 282.014 308.391 282.014 306.735V125.159Z" fill="white"/>
<path d="M398.514 125.163C398.514 119.603 405.236 116.818 409.168 120.75L446.611 158.194C447.782 159.365 448.439 160.952 448.439 162.607V344.184C448.439 349.744 441.717 352.528 437.785 348.597L400.342 311.152C399.171 309.982 398.514 308.394 398.514 306.739V125.163Z" fill="white"/>
<path d="M515.01 125.161C515.01 119.601 521.733 116.816 525.664 120.748L563.109 158.194C564.28 159.365 564.938 160.952 564.938 162.607V344.184C564.937 349.744 558.215 352.528 554.283 348.597L516.838 311.15C515.668 309.98 515.01 308.392 515.01 306.737V125.161Z" fill="white"/>
<path d="M165.516 125.159C165.516 119.599 172.238 116.815 176.17 120.746L213.615 158.192C214.786 159.363 215.443 160.95 215.443 162.605V344.182C215.443 349.742 208.721 352.526 204.789 348.595L167.344 311.148C166.173 309.978 165.516 308.391 165.516 306.735V125.159Z" fill="white"/>
<path d="M631.508 125.161C631.508 119.601 638.231 116.816 642.162 120.748L679 157.586V349.133C676.684 350.889 673.202 351.017 670.779 348.595L633.336 311.15C632.166 309.98 631.508 308.392 631.508 306.737V125.161Z" fill="white"/>
<path d="M390.189 90.3867C390.189 92.0419 389.532 93.6294 388.361 94.7998L350.918 132.244C346.986 136.176 340.264 133.391 340.264 127.831V0H390.189V90.3867Z" fill="white"/>
<path d="M506.688 90.3848C506.688 92.0399 506.03 93.6275 504.859 94.7979L467.414 132.244C463.483 136.176 456.76 133.391 456.76 127.831V0H506.688V90.3848Z" fill="white"/>
<path d="M623.188 90.3828C623.188 92.038 622.53 93.6255 621.359 94.7959L583.912 132.244C579.981 136.176 573.258 133.391 573.258 127.831V0H623.188V90.3828Z" fill="white"/>
<path d="M273.693 90.3828C273.693 92.038 273.036 93.6255 271.865 94.7959L234.42 132.242C230.488 136.174 223.766 133.389 223.766 127.829V0H273.693V90.3828Z" fill="white"/>
</svg>
