<svg width="80" height="80" viewBox="0 0 80 80" fill="none" xmlns="http://www.w3.org/2000/svg">
<path d="M60.4092 15.3186C60.4092 15.8573 60.1218 16.3551 59.6553 16.6244L47.3053 23.7547C47.3047 23.755 47.304 23.7546 47.304 23.754C47.304 23.7533 47.3033 23.7529 47.3028 23.7532L43.1462 26.1531C43.1459 26.1532 43.1456 26.153 43.1456 26.1527C43.1456 26.1524 43.1453 26.1522 43.145 26.1524L33.6854 31.6139C33.2189 31.8832 32.9315 32.381 32.9315 32.9197V41.3574C32.9315 42.5181 34.188 43.2436 35.1932 42.6632L44.516 37.2808C44.5219 37.2774 44.5293 37.2816 44.5293 37.2884C44.5293 37.2953 44.5367 37.2995 44.5426 37.2961L50.4134 33.9066C51.4186 33.3262 52.6752 34.0517 52.6752 35.2124V46.8637C52.6752 47.4034 52.3867 47.902 51.9187 48.171L39.65 55.2226L33.1677 58.9653C32.7012 59.2346 32.4138 59.7324 32.4138 60.2711V75.7254C32.4138 76.8861 31.1573 77.6116 30.152 77.0312L20.0625 71.206C19.596 70.9367 19.3086 70.4389 19.3086 69.9002V52.9801C19.3086 51.8194 20.5651 51.0939 21.5704 51.6743L29.1623 56.0575C30.1676 56.6379 31.4241 55.9124 31.4241 54.7517V45.8892C31.4241 45.3505 31.1367 44.8528 30.6702 44.5834L20.5803 38.758C20.1138 38.4887 19.8264 37.9909 19.8264 37.4522V25.8019C19.8264 24.6412 21.0829 23.9157 22.0881 24.4961L29.3028 28.6614C30.308 29.2418 31.5645 28.5163 31.5645 27.3556V18.5765C31.5645 18.0378 31.8519 17.54 32.3184 17.2707L44.6692 10.14C44.6694 10.1398 44.6697 10.14 44.6697 10.1403C44.6697 10.1405 44.67 10.1407 44.6702 10.1406L56.2495 3.45531C56.2501 3.45498 56.2508 3.45539 56.2508 3.45605C56.2508 3.4567 56.2515 3.45711 56.2521 3.45678L58.33 2.25711C59.2541 1.72359 60.4092 2.3905 60.4092 3.45756V15.3186Z" fill="white"/>
</svg>
