<svg width="138" height="48" viewBox="0 0 138 48" fill="none" xmlns="http://www.w3.org/2000/svg">
<path d="M29.5517 32.793V16.7341H39.554V19.2347H32.3276V23.4789H38.9805V26.0024H32.3276V32.793H29.5517ZM41.9206 32.793V16.7341H44.5588V32.793H41.9206ZM51.4123 33.1141C50.617 33.1141 49.8982 32.9765 49.2558 32.7012C48.6135 32.4106 48.1011 31.9977 47.7188 31.4624C47.3517 30.9271 47.1682 30.2694 47.1682 29.4894C47.1682 28.7247 47.3517 28.0824 47.7188 27.5624C48.1011 27.0424 48.6211 26.6524 49.2788 26.3924C49.9364 26.1171 50.6858 25.9794 51.527 25.9794H54.8076V25.2912C54.8076 24.6947 54.6241 24.213 54.257 23.8459C53.89 23.4636 53.3164 23.2724 52.5364 23.2724C51.7717 23.2724 51.1905 23.4559 50.7929 23.823C50.4105 24.1747 50.1582 24.6336 50.0358 25.1994L47.6041 24.3965C47.7876 23.8 48.0782 23.2571 48.4758 22.7677C48.8888 22.2783 49.4317 21.8883 50.1047 21.5977C50.7776 21.2918 51.6035 21.1389 52.5823 21.1389C54.0658 21.1389 55.2282 21.5136 56.0694 22.263C56.9258 22.9971 57.3541 24.0677 57.3541 25.4747V29.9253C57.3541 30.3841 57.5682 30.6136 57.9964 30.6136H58.96V32.793H57.1017C56.5511 32.793 56.1 32.6553 55.7482 32.38C55.3964 32.1047 55.2205 31.73 55.2205 31.2559V31.21H54.8305C54.7388 31.4241 54.5782 31.6841 54.3488 31.99C54.1194 32.2959 53.7676 32.5636 53.2935 32.793C52.8347 33.0071 52.2076 33.1141 51.4123 33.1141ZM51.8482 30.9577C52.72 30.9577 53.4311 30.713 53.9817 30.2236C54.5323 29.7189 54.8076 29.0459 54.8076 28.2047V27.9753H51.6876C51.1217 27.9753 50.6629 28.0977 50.3111 28.3424C49.9594 28.5871 49.7835 28.9465 49.7835 29.4206C49.7835 29.8794 49.967 30.2541 50.3341 30.5447C50.7011 30.82 51.2058 30.9577 51.8482 30.9577ZM61.1428 32.793V21.46H63.7351V22.7218H64.1251C64.3239 22.3394 64.6528 22.003 65.1116 21.7124C65.5857 21.4065 66.2128 21.2536 66.9928 21.2536C67.8187 21.2536 68.4839 21.4218 68.9887 21.7583C69.4934 22.0947 69.8757 22.523 70.1357 23.043H70.5028C70.7628 22.523 71.1375 22.0947 71.6269 21.7583C72.1163 21.4218 72.8122 21.2536 73.7145 21.2536C74.4181 21.2536 75.0528 21.4065 75.6187 21.7124C76.1998 22.0183 76.6587 22.4694 76.9951 23.0659C77.3469 23.6624 77.5228 24.4041 77.5228 25.2912V32.793H74.8845V25.4747C74.8845 24.8171 74.7087 24.32 74.3569 23.9836C74.0051 23.6318 73.5157 23.4559 72.8887 23.4559C72.2004 23.4559 71.6498 23.6853 71.2369 24.1441C70.8392 24.5877 70.6404 25.23 70.6404 26.0712V32.793H68.0251V25.4747C68.0251 24.8171 67.8492 24.32 67.4975 23.9836C67.1457 23.6318 66.6563 23.4559 66.0292 23.4559C65.3257 23.4559 64.7751 23.6853 64.3775 24.1441C63.9798 24.5877 63.781 25.23 63.781 26.0712V32.793H61.1428ZM85.9529 33.1141C84.8212 33.1141 83.8194 32.8771 82.9476 32.403C82.0912 31.9136 81.4182 31.233 80.9288 30.3612C80.4547 29.4741 80.2176 28.4418 80.2176 27.2641V26.9889C80.2176 25.7959 80.4547 24.7636 80.9288 23.8918C81.4029 23.02 82.0682 22.3471 82.9247 21.873C83.7812 21.3836 84.7676 21.1389 85.8841 21.1389C86.9853 21.1389 87.9488 21.3836 88.7747 21.873C89.6006 22.3471 90.2429 23.02 90.7018 23.8918C91.1606 24.7636 91.39 25.7806 91.39 26.943V27.8836H82.8788C82.9094 28.7706 83.2229 29.4818 83.8194 30.0171C84.4159 30.5524 85.15 30.82 86.0218 30.82C86.8782 30.82 87.5129 30.6365 87.9259 30.2694C88.3388 29.8871 88.6523 29.4589 88.8665 28.9847L91.0459 30.1089C90.8318 30.5218 90.5182 30.9653 90.1053 31.4394C89.7076 31.8983 89.1723 32.2959 88.4994 32.6324C87.8265 32.9536 86.9776 33.1141 85.9529 33.1141ZM82.9018 25.8877H88.7059C88.6447 25.1383 88.3541 24.5418 87.8341 24.0983C87.3294 23.6547 86.6718 23.433 85.8612 23.433C85.02 23.433 84.3471 23.6547 83.8423 24.0983C83.3376 24.5418 83.0241 25.1383 82.9018 25.8877ZM98.0304 32.793C97.2963 32.793 96.7074 32.5789 96.2639 32.1506C95.8357 31.7071 95.6216 31.1106 95.6216 30.3612V23.6394H92.6622V21.46H95.6216V17.8124H98.2598V21.46H101.517V23.6394H98.2598V29.9253C98.2598 30.3841 98.4739 30.6136 98.9022 30.6136H101.173V32.793H98.0304ZM104.202 32.793V21.46H106.795V22.7677H107.185C107.353 22.2936 107.636 21.9494 108.033 21.7353C108.431 21.5212 108.905 21.4141 109.456 21.4141H110.832V23.7541H109.41C108.645 23.7541 108.026 23.9606 107.552 24.3736C107.078 24.7712 106.841 25.3906 106.841 26.2318V32.793H104.202ZM117.945 33.1141C116.813 33.1141 115.812 32.8771 114.94 32.403C114.083 31.9136 113.41 31.233 112.921 30.3612C112.447 29.4741 112.21 28.4418 112.21 27.2641V26.9889C112.21 25.7959 112.447 24.7636 112.921 23.8918C113.395 23.02 114.06 22.3471 114.917 21.873C115.773 21.3836 116.76 21.1389 117.876 21.1389C118.977 21.1389 119.941 21.3836 120.767 21.873C121.593 22.3471 122.235 23.02 122.694 23.8918C123.153 24.7636 123.382 25.7806 123.382 26.943V27.8836H114.871C114.902 28.7706 115.215 29.4818 115.812 30.0171C116.408 30.5524 117.142 30.82 118.014 30.82C118.87 30.82 119.505 30.6365 119.918 30.2694C120.331 29.8871 120.645 29.4589 120.859 28.9847L123.038 30.1089C122.824 30.5218 122.51 30.9653 122.097 31.4394C121.7 31.8983 121.165 32.2959 120.492 32.6324C119.819 32.9536 118.97 33.1141 117.945 33.1141ZM114.894 25.8877H120.698C120.637 25.1383 120.346 24.5418 119.826 24.0983C119.322 23.6547 118.664 23.433 117.853 23.433C117.012 23.433 116.339 23.6547 115.835 24.0983C115.33 24.5418 115.016 25.1383 114.894 25.8877ZM131.275 33.1141C130.143 33.1141 129.142 32.8771 128.27 32.403C127.413 31.9136 126.74 31.233 126.251 30.3612C125.777 29.4741 125.54 28.4418 125.54 27.2641V26.9889C125.54 25.7959 125.777 24.7636 126.251 23.8918C126.725 23.02 127.39 22.3471 128.247 21.873C129.103 21.3836 130.09 21.1389 131.206 21.1389C132.308 21.1389 133.271 21.3836 134.097 21.873C134.923 22.3471 135.565 23.02 136.024 23.8918C136.483 24.7636 136.712 25.7806 136.712 26.943V27.8836H128.201C128.232 28.7706 128.545 29.4818 129.142 30.0171C129.738 30.5524 130.472 30.82 131.344 30.82C132.2 30.82 132.835 30.6365 133.248 30.2694C133.661 29.8871 133.975 29.4589 134.189 28.9847L136.368 30.1089C136.154 30.5218 135.84 30.9653 135.428 31.4394C135.03 31.8983 134.495 32.2959 133.822 32.6324C133.149 32.9536 132.3 33.1141 131.275 33.1141ZM128.224 25.8877H134.028C133.967 25.1383 133.676 24.5418 133.156 24.0983C132.652 23.6547 131.994 23.433 131.183 23.433C130.342 23.433 129.669 23.6547 129.165 24.0983C128.66 24.5418 128.346 25.1383 128.224 25.8877Z" fill="black"/>
<path d="M19.7246 12.0448C19.7246 12.2612 19.6091 12.4612 19.4217 12.5694L17.832 13.4868C17.8199 13.4938 17.8125 13.5066 17.8125 13.5205C17.8125 13.5344 17.8051 13.5472 17.7931 13.5542L11.7772 17.0273C11.7712 17.0308 11.7637 17.0265 11.7637 17.0195C11.7637 17.0126 11.7562 17.0082 11.7501 17.0117L7.02748 19.7382C6.84006 19.8464 6.72461 20.0464 6.72461 20.2628V24.6581C6.72461 25.1244 7.22927 25.4158 7.63308 25.1828L9.81587 23.9231C9.83917 23.9096 9.85352 23.8848 9.85352 23.8579C9.85352 23.831 9.86786 23.8062 9.89115 23.7927L14.9938 20.8468C15.3976 20.6137 15.9023 20.9051 15.9023 21.3714V26.9569C15.9023 27.1733 15.7869 27.3733 15.5994 27.4815L12.1162 29.4917C12.0926 29.5053 12.0781 29.5304 12.0781 29.5576C12.0781 29.5848 12.0636 29.6099 12.0401 29.6235L6.78925 32.6543C6.6018 32.7624 6.48633 32.9624 6.48633 33.1789V40.8376C6.48633 41.3039 5.98157 41.5953 5.57777 41.3622L0.740364 38.5694C0.552952 38.4612 0.4375 38.2612 0.4375 38.0448V30.0275C0.4375 29.5613 0.942198 29.2698 1.34601 29.5029L5.12079 31.6817C5.5246 31.9147 6.0293 31.6233 6.0293 31.1571V26.5412C6.0293 26.3247 5.91382 26.1248 5.72637 26.0166L0.978712 23.2764C0.791262 23.1682 0.675781 22.9682 0.675781 22.7518V17.1663C0.675781 16.7 1.18052 16.4086 1.58433 16.6417L5.50356 18.9042C5.90737 19.1373 6.41211 18.8459 6.41211 18.3796V13.4591C6.41211 13.2427 6.52756 13.0427 6.71497 12.9345L12.4478 9.62475C12.4537 9.62139 12.4609 9.62559 12.4609 9.63232C12.4609 9.63905 12.4682 9.64325 12.474 9.63988L13.6572 8.95606C13.6687 8.94941 13.6758 8.93713 13.6758 8.92383C13.6758 8.91054 13.6829 8.89825 13.6944 8.8916L18.816 5.9347C19.2199 5.70157 19.7246 5.99299 19.7246 6.45927V12.0448Z" fill="url(#paint0_linear_198_10064)"/>
<defs>
<linearGradient id="paint0_linear_198_10064" x1="12" y1="18" x2="-1.5" y2="38.5" gradientUnits="userSpaceOnUse">
<stop stop-color="#EF6E24"/>
<stop offset="1" stop-color="#F5BE3E"/>
</linearGradient>
</defs>
</svg>
