<svg width="36" height="43" viewBox="0 0 36 43" fill="none" xmlns="http://www.w3.org/2000/svg">
<path d="M29 4C29 4.55228 29.4477 5 30 5H33C33.5523 5 34 5.44772 34 6V25C34 25.5523 33.5523 26 33 26H28C27.4477 26 27 26.4477 27 27V28C27 28.5523 27.4477 29 28 29H30C30.5523 29 31 29.4477 31 30V34C31 34.5523 31.4477 35 32 35H35C35.5523 35 36 35.4477 36 36V42C36 42.5523 35.5523 43 35 43H29C28.4477 43 28 42.5523 28 42V38C28 37.4477 27.5523 37 27 37H24C23.4477 37 23 36.5523 23 36V33C23 32.4477 22.5523 32 22 32H6C5.44772 32 5 31.5523 5 31V27C5 26.4477 4.55228 26 4 26H1C0.447715 26 0 25.5523 0 25V6C0 5.44772 0.447715 5 1 5H4C4.55228 5 5 4.55228 5 4V1C5 0.447715 5.44772 0 6 0H28C28.5523 0 29 0.447715 29 1V4ZM8 23C8 23.5523 8.44771 24 9 24H25C25.5523 24 26 23.5523 26 23V9C26 8.44771 25.5523 8 25 8H9C8.44772 8 8 8.44771 8 9V23Z" fill="url(#paint0_linear_661_12813)"/>
<defs>
<linearGradient id="paint0_linear_661_12813" x1="-0.424705" y1="43.8182" x2="58.8299" y2="36.4383" gradientUnits="userSpaceOnUse">
<stop stop-color="#FF9B00"/>
<stop offset="1" stop-color="#FE6150"/>
</linearGradient>
</defs>
</svg>
