<svg width="48" height="48" viewBox="0 0 48 48" fill="none" xmlns="http://www.w3.org/2000/svg">
<g clip-path="url(#clip0_661_12763)">
<path d="M36 35C36 34.4477 36.4477 34 37 34L41 34C41.5523 34 42 33.5523 42 33L42 29C42 28.4477 42.4477 28 43 28L47 28C47.5523 28 48 27.5523 48 27L48 21C48 20.4477 47.5523 20 47 20L43 20C42.4477 20 42 19.5523 42 19L42 15C42 14.4477 41.5523 14 41 14L37 14C36.4477 14 36 13.5523 36 13L36 9C36 8.44772 35.5523 8 35 8L29 8C28.4477 8 28 8.44772 28 9L28 15C28 15.5523 28.4477 16 29 16L33 16C33.5523 16 34 16.4477 34 17L34 21C34 21.5523 34.4477 22 35 22L39 22C39.5523 22 40 22.4477 40 23L40 25C40 25.5523 39.5523 26 39 26L35 26C34.4477 26 34 26.4477 34 27L34 31C34 31.5523 33.5523 32 33 32L29 32C28.4477 32 28 32.4477 28 33L28 39C28 39.5523 28.4477 40 29 40L35 40C35.5523 40 36 39.5523 36 39L36 35ZM28 21C28 20.4477 27.5523 20 27 20L1 20C0.447717 20 1.70931e-06 20.4477 1.66103e-06 21L1.1365e-06 27C1.08821e-06 27.5523 0.447716 28 1 28L27 28C27.5523 28 28 27.5523 28 27L28 21Z" fill="url(#paint0_linear_661_12763)"/>
</g>
<defs>
<linearGradient id="paint0_linear_661_12763" x1="-0.566271" y1="7.39112" x2="75.8598" y2="24.4451" gradientUnits="userSpaceOnUse">
<stop stop-color="#FF9B00"/>
<stop offset="1" stop-color="#FE6150"/>
</linearGradient>
<clipPath id="clip0_661_12763">
<rect width="48" height="48" fill="white"/>
</clipPath>
</defs>
</svg>
