<svg width="44" height="32" viewBox="0 0 44 32" fill="none" xmlns="http://www.w3.org/2000/svg">
<path d="M30.7207 5.15071C30.7207 5.84089 31.2802 6.40039 31.9704 6.40039H35.8714C36.5616 6.40039 37.1211 6.95989 37.1211 7.65007V10.9105C37.1211 11.6007 37.6806 12.1602 38.3708 12.1602H42.2698C42.96 12.1602 43.5195 12.7197 43.5195 13.4098V18.5902C43.5195 19.2803 42.96 19.8398 42.2698 19.8398H38.3708C37.6806 19.8398 37.1211 20.3993 37.1211 21.0895V24.9906C37.1211 25.6807 36.5616 26.2402 35.8714 26.2402H31.9704C31.2802 26.2402 30.7207 26.7997 30.7207 27.4899V30.7503C30.7207 31.4405 30.1612 32 29.471 32H24.2907C23.6005 32 23.041 31.4405 23.041 30.7503V25.57C23.041 24.8798 23.6005 24.3203 24.2907 24.3203H28.1917C28.8819 24.3203 29.4414 23.7608 29.4414 23.0706V19.8102C29.4414 19.12 30.0009 18.5605 30.6911 18.5605H34.5902C35.2803 18.5605 35.8398 18.001 35.8398 17.3109V15.3298C35.8398 14.6396 35.2803 14.0801 34.5902 14.0801H30.6911C30.0009 14.0801 29.4414 13.5206 29.4414 12.8304V8.92937C29.4414 8.23919 28.8819 7.67969 28.1917 7.67969H24.2907C23.6005 7.67969 23.041 7.12019 23.041 6.43V1.24968C23.041 0.559502 23.6005 0 24.2907 0H29.471C30.1612 0 30.7207 0.559502 30.7207 1.24968V5.15071ZM15.3594 18.5902C15.3594 19.2803 14.7999 19.8398 14.1097 19.8398H7.68018C7.67991 19.8398 7.67969 19.8401 7.67969 19.8403C7.67969 19.8406 7.67947 19.8408 7.6792 19.8408H1.24968C0.559502 19.8408 0 19.2813 0 18.5911V13.4098C0 12.7197 0.559502 12.1602 1.24968 12.1602H14.1097C14.7999 12.1602 15.3594 12.7197 15.3594 13.4098V18.5902ZM23.041 18.5903C23.041 19.2804 22.4816 19.8399 21.7915 19.84L16.6112 19.8407C15.9209 19.8407 15.3613 19.2812 15.3613 18.591V13.4098C15.3613 12.7197 15.9208 12.1602 16.611 12.1602H21.7913C22.4815 12.1602 23.041 12.7197 23.041 13.4098V18.5903Z" fill="url(#paint0_linear_198_10598)"/>
<defs>
<linearGradient id="paint0_linear_198_10598" x1="-0.513416" y1="32.6089" x2="69.3688" y2="18.4707" gradientUnits="userSpaceOnUse">
<stop stop-color="#FF9B00"/>
<stop offset="1" stop-color="#FE6150"/>
</linearGradient>
</defs>
</svg>
