<svg width="72" height="32" viewBox="0 0 72 32" fill="none" xmlns="http://www.w3.org/2000/svg">
<path d="M57.6973 0.000976562C58.3497 0.000976562 58.8787 0.529274 58.8789 1.18164V5.21973C58.8791 5.87209 59.4081 6.40137 60.0605 6.40137H64.0957C64.7481 6.40137 65.2771 6.92966 65.2773 7.58203V10.9795C65.2775 11.6319 65.8066 12.1611 66.459 12.1611H70.4961C71.1485 12.1611 71.6775 12.6894 71.6777 13.3418V18.6592C71.6775 19.3115 71.1485 19.8408 70.4961 19.8408H66.459C65.8066 19.8408 65.2775 20.3691 65.2773 21.0215V25.0586C65.2771 25.711 64.7481 26.2402 64.0957 26.2402H60.0605C59.4081 26.2402 58.8791 26.7685 58.8789 27.4209V30.8184C58.8788 31.4707 58.3497 31.9999 57.6973 32H52.3809C51.7283 32.0001 51.1992 31.4709 51.1992 30.8184V25.501C51.1994 24.8486 51.7284 24.3203 52.3809 24.3203H56.416C57.0684 24.3203 57.5975 23.791 57.5977 23.1387V19.7412C57.5979 19.0888 58.1269 18.5605 58.7793 18.5605H62.8164C63.4688 18.5605 63.9978 18.0313 63.998 17.3789V15.2617C63.9978 14.6094 63.4688 14.0811 62.8164 14.0811H58.7793C58.1269 14.0811 57.5979 13.5518 57.5977 12.8994V8.86133C57.5975 8.20896 57.0684 7.68066 56.416 7.68066H52.3809C51.7284 7.68066 51.1994 7.15139 51.1992 6.49902V1.18164C51.1994 0.529274 51.7284 0.000976562 52.3809 0.000976562H57.6973ZM19.2988 0C19.9514 0 20.4805 0.529103 20.4805 1.18164V6.49805C20.4805 7.15058 19.9514 7.67969 19.2988 7.67969H15.2617C14.6092 7.67969 14.0801 8.20879 14.0801 8.86133V12.8975C14.0801 13.55 13.551 14.0791 12.8984 14.0791H8.86133C8.20879 14.0791 7.67969 14.6082 7.67969 15.2607V17.3779C7.67969 18.0305 8.20879 18.5596 8.86133 18.5596H12.8984C13.551 18.5596 14.0801 19.0887 14.0801 19.7412V23.1377C14.0801 23.7902 14.6092 24.3193 15.2617 24.3193H19.2988C19.9514 24.3193 20.4805 24.8484 20.4805 25.501V30.8174C20.4805 31.4699 19.9514 31.999 19.2988 31.999H13.9824C13.3299 31.999 12.8008 31.4699 12.8008 30.8174V27.4209C12.8008 26.7684 12.2717 26.2393 11.6191 26.2393H7.58105C6.92852 26.2393 6.39941 25.7102 6.39941 25.0576V21.0215C6.39941 20.3689 5.87031 19.8398 5.21777 19.8398H1.18164C0.529103 19.8398 0 19.3107 0 18.6582V13.3418C0 12.6893 0.529103 12.1602 1.18164 12.1602H5.21777C5.87031 12.1602 6.39941 11.6311 6.39941 10.9785V7.58105C6.39941 6.92852 6.92852 6.39941 7.58105 6.39941H11.6191C12.2717 6.39941 12.8008 5.87031 12.8008 5.21777V1.18164C12.8008 0.529103 13.3299 0 13.9824 0H19.2988ZM44.9043 5.75977C45.5536 5.75977 46.0801 6.28621 46.0801 6.93555V12.2637C46.0801 12.913 45.5536 13.4395 44.9043 13.4395H40.8574C40.2081 13.4395 39.6816 13.9659 39.6816 14.6152V18.6641C39.6816 19.3134 39.1552 19.8398 38.5059 19.8398H34.457C33.8077 19.8398 33.2812 20.3663 33.2812 21.0156V24.4238C33.2812 25.0732 32.7548 25.5996 32.1055 25.5996H26.7773C26.128 25.5996 25.6016 25.0732 25.6016 24.4238V19.0957C25.6016 18.4464 26.128 17.9199 26.7773 17.9199H30.8262C31.4755 17.9199 32.002 17.3935 32.002 16.7441V13.3359C32.002 12.6866 32.5284 12.1602 33.1777 12.1602H37.2246C37.874 12.1602 38.4004 11.6337 38.4004 10.9844V6.93555C38.4004 6.28621 38.9268 5.75977 39.5762 5.75977H44.9043Z" fill="url(#paint0_linear_198_10564)"/>
<defs>
<linearGradient id="paint0_linear_198_10564" x1="-0.845608" y1="32.6089" x2="106.99" y2="-3.32375" gradientUnits="userSpaceOnUse">
<stop stop-color="#FF9B00"/>
<stop offset="1" stop-color="#FE6150"/>
</linearGradient>
</defs>
</svg>
