<svg width="49" height="32" viewBox="0 0 49 32" fill="none" xmlns="http://www.w3.org/2000/svg">
<path d="M6.46484 0C7.13563 0 7.67969 0.544061 7.67969 1.21484V5.18555C7.67969 5.85633 8.22375 6.40039 8.89453 6.40039H12.8633C13.5341 6.40039 14.0781 6.94445 14.0781 7.61523V10.9453C14.0781 11.6161 14.6222 12.1602 15.293 12.1602H19.2656C19.9364 12.1602 20.4805 12.7042 20.4805 13.375V18.625C20.4805 19.2958 19.9364 19.8398 19.2656 19.8398H15.293C14.6222 19.8398 14.0781 20.3839 14.0781 21.0547V25.0244C14.0781 25.6952 13.5341 26.2393 12.8633 26.2393H8.89453C8.22375 26.2393 7.67969 26.7833 7.67969 27.4541V30.7852C7.67969 31.4559 7.13563 32 6.46484 32H1.21484C0.544061 32 0 31.4559 0 30.7852V25.5342C0 24.8634 0.544061 24.3193 1.21484 24.3193H5.18359C5.85438 24.3193 6.39844 23.7753 6.39844 23.1045V19.7744C6.39844 19.1036 6.9425 18.5596 7.61328 18.5596H11.5859C12.2567 18.5596 12.8008 18.0155 12.8008 17.3447V15.2949C12.8008 14.6241 12.2567 14.0801 11.5859 14.0801H7.61328C6.9425 14.0801 6.39844 13.536 6.39844 12.8652V8.89453C6.39844 8.22375 5.85438 7.67969 5.18359 7.67969H1.21484C0.544061 7.67969 0 7.13563 0 6.46484V1.21484C0 0.544061 0.544061 0 1.21484 0H6.46484ZM47.4258 0C48.0966 0 48.6406 0.544061 48.6406 1.21484V6.46484C48.6406 7.13563 48.0966 7.67969 47.4258 7.67969H43.457C42.7862 7.67969 42.2422 8.22375 42.2422 8.89453V12.8652C42.2422 13.536 41.6981 14.0801 41.0273 14.0801H37.0547C36.3839 14.0801 35.8398 14.6241 35.8398 15.2949V17.3447C35.8398 18.0155 36.3839 18.5596 37.0547 18.5596H41.0273C41.6981 18.5596 42.2422 19.1036 42.2422 19.7744V23.1045C42.2422 23.7753 42.7862 24.3193 43.457 24.3193H47.4258C48.0966 24.3193 48.6406 24.8634 48.6406 25.5342V30.7852C48.6406 31.4559 48.0966 32 47.4258 32H42.1758C41.505 32 40.9609 31.4559 40.9609 30.7852V27.4541C40.9609 26.7833 40.4169 26.2393 39.7461 26.2393H35.7773C35.1066 26.2393 34.5625 25.6952 34.5625 25.0244V21.0547C34.5625 20.3839 34.0184 19.8398 33.3477 19.8398H29.375C28.7042 19.8398 28.1602 19.2958 28.1602 18.625V13.375C28.1602 12.7042 28.7042 12.1602 29.375 12.1602H33.3477C34.0184 12.1602 34.5625 11.6161 34.5625 10.9453V7.61523C34.5625 6.94445 35.1066 6.40039 35.7773 6.40039H39.7461C40.4169 6.40039 40.9609 5.85633 40.9609 5.18555V1.21484C40.9609 0.544061 41.505 0 42.1758 0H47.4258Z" fill="url(#paint0_linear_198_10614)"/>
<defs>
<linearGradient id="paint0_linear_198_10614" x1="-0.573831" y1="32.6089" x2="76.7737" y2="15.1189" gradientUnits="userSpaceOnUse">
<stop stop-color="#FF9B00"/>
<stop offset="1" stop-color="#FE6150"/>
</linearGradient>
</defs>
</svg>
