<svg width="48" height="48" viewBox="0 0 48 48" fill="none" xmlns="http://www.w3.org/2000/svg">
<path d="M11.8913 28.8848C12.5468 28.8848 13.0781 29.4161 13.0781 30.0716L13.0781 33.7341C13.0781 34.3896 13.6095 34.9209 14.2649 34.9209L18.9343 34.9209C19.5897 34.9209 20.1211 35.4522 20.1211 36.1077L20.1211 46.8132C20.1211 47.4687 20.6524 48 21.3079 48L26.695 48C27.3505 48 27.8818 47.4687 27.8818 46.8132L27.8818 36.1077C27.8818 35.4522 28.4132 34.9209 29.0686 34.9209L32.7302 34.9209C33.3856 34.9209 33.917 34.3896 33.917 33.7341L33.917 30.0716C33.917 29.4161 34.4483 28.8848 35.1038 28.8848L46.8142 28.8848C47.4696 28.8848 48.001 28.3534 48.001 27.698L48.001 22.3108C48.001 21.6554 47.4696 21.124 46.8142 21.124L34.7698 21.124C34.1143 21.124 33.583 20.5927 33.583 19.9372L33.583 16.2747C33.583 15.6192 33.0517 15.0879 32.3962 15.0879L28.6389 15.0879C27.9835 15.0879 27.4521 14.5565 27.4521 13.9011L27.4521 1.6155C27.4521 0.960054 26.9208 0.428712 26.2654 0.428712L20.5911 0.428712C19.9356 0.428712 19.4043 0.960055 19.4043 1.6155L19.4043 13.9011C19.4043 14.5565 18.873 15.0879 18.2175 15.0879L14.2649 15.0879C13.6095 15.0879 13.0781 15.6192 13.0781 16.2747L13.0781 19.938C13.0781 20.5935 12.5467 21.1249 11.8911 21.1248L7.0415 21.124C7.04123 21.124 7.04101 21.1242 7.04101 21.1245C7.04101 21.1248 7.0408 21.125 7.04053 21.125L1.18695 21.1242C0.531442 21.1241 -9.27851e-07 21.6555 -9.56504e-07 22.311L-1.19198e-06 27.698C-1.22063e-06 28.3534 0.531342 28.8848 1.18679 28.8848L11.8913 28.8848ZM19.6521 22.8486C20.3075 22.8486 20.8389 22.3173 20.8389 21.6618L20.8389 17.7122C20.8389 17.0567 21.3702 16.5254 22.0257 16.5254L24.6355 16.5254C25.2909 16.5254 25.8223 17.0567 25.8223 17.7122L25.8223 21.6618C25.8223 22.3173 26.3536 22.8486 27.0091 22.8486L31.2956 22.8486C31.9511 22.8486 32.4824 23.38 32.4824 24.0354L32.4824 25.9734C32.4824 26.6288 31.9511 27.1602 31.2956 27.1602L27.343 27.1602C26.6876 27.1602 26.1562 27.6915 26.1562 28.3469L26.1562 32.0105C26.1562 32.6659 25.6249 33.1973 24.9695 33.1973L22.0257 33.1973C21.3702 33.1973 20.8389 32.6659 20.8389 32.0105L20.8389 28.3477C20.8389 27.6924 20.3076 27.161 19.6523 27.1609L15.9884 27.1603C15.333 27.1602 14.8018 26.6289 14.8018 25.9736L14.8018 24.0354C14.8018 23.38 15.3331 22.8486 15.9885 22.8486L19.6521 22.8486Z" fill="url(#paint0_linear_198_10636)"/>
<defs>
<linearGradient id="paint0_linear_198_10636" x1="48.9143" y1="-0.132503" x2="37.4407" y2="77.691" gradientUnits="userSpaceOnUse">
<stop stop-color="#FF9B00"/>
<stop offset="1" stop-color="#FE6150"/>
</linearGradient>
</defs>
</svg>
