<svg width="46" height="47" viewBox="0 0 46 47" fill="none" xmlns="http://www.w3.org/2000/svg">
<path d="M27 12C27 12.5523 27.4477 13 28 13H33C33.5523 13 34 13.4477 34 14V19C34 19.5523 34.4477 20 35 20H45C45.5523 20 46 20.4477 46 21V27C46 27.5523 45.5523 28 45 28H35C34.4477 28 34 28.4477 34 29V34C34 34.5523 33.5523 35 33 35H28C27.4477 35 27 35.4477 27 36V46C27 46.5523 26.5523 47 26 47H20C19.4477 47 19 46.5523 19 46V36C19 35.4477 18.5523 35 18 35H13C12.4477 35 12 34.5523 12 34V29C12 28.4477 11.5523 28 11 28H1C0.447715 28 0 27.5523 0 27V21C0 20.4477 0.447715 20 1 20H11C11.5523 20 12 19.5523 12 19V14C12 13.4477 12.4477 13 13 13H18C18.5523 13 19 12.5523 19 12V1C19 0.447715 19.4477 0 20 0H26C26.5523 0 27 0.447715 27 1V12ZM20 20C20 20.5523 19.5523 21 19 21H16C15.4477 21 15 21.4477 15 22V26C15 26.5523 15.4477 27 16 27H19C19.5523 27 20 27.4477 20 28V31C20 31.5523 20.4477 32 21 32H25C25.5523 32 26 31.5523 26 31V28C26 27.4477 26.4477 27 27 27H30C30.5523 27 31 26.5523 31 26V22C31 21.4477 30.5523 21 30 21H27C26.4477 21 26 20.5523 26 20V17C26 16.4477 25.5523 16 25 16H21C20.4477 16 20 16.4477 20 17V20Z" fill="url(#paint0_linear_661_12804)"/>
<defs>
<linearGradient id="paint0_linear_661_12804" x1="-0.542679" y1="47.8943" x2="74.7499" y2="36.9319" gradientUnits="userSpaceOnUse">
<stop stop-color="#FF9B00"/>
<stop offset="1" stop-color="#FE6150"/>
</linearGradient>
</defs>
</svg>
