<svg width="48" height="48" viewBox="0 0 48 48" fill="none" xmlns="http://www.w3.org/2000/svg">
<path d="M18 8C18.5523 8 19 8.44772 19 9V15C19 15.5523 18.5523 16 18 16H15C14.4477 16 14 16.4477 14 17V21C14 21.5523 13.5523 22 13 22H9C8.44771 22 8 22.4477 8 23V25C8 25.5523 8.44772 26 9 26H13C13.5523 26 14 26.4477 14 27V31C14 31.5523 14.4477 32 15 32H18C18.5523 32 19 32.4477 19 33V39C19 39.5523 18.5523 40 18 40H12C11.4477 40 11 39.5523 11 39V35C11 34.4477 10.5523 34 10 34H7C6.44772 34 6 33.5523 6 33V29C6 28.4477 5.55228 28 5 28H1C0.447715 28 0 27.5523 0 27V21C0 20.4477 0.447715 20 1 20H5C5.55228 20 6 19.5523 6 19V15C6 14.4477 6.44772 14 7 14H10C10.5523 14 11 13.5523 11 13V9C11 8.44772 11.4477 8 12 8H18ZM36 8C36.5523 8 37 8.44772 37 9V13C37 13.5523 37.4477 14 38 14H41C41.5523 14 42 14.4477 42 15V19C42 19.5523 42.4477 20 43 20H47C47.5523 20 48 20.4477 48 21V27C48 27.5523 47.5523 28 47 28H43C42.4477 28 42 28.4477 42 29V33C42 33.5523 41.5523 34 41 34H38C37.4477 34 37 34.4477 37 35V39C37 39.5523 36.5523 40 36 40H30C29.4477 40 29 39.5523 29 39V33C29 32.4477 29.4477 32 30 32H33C33.5523 32 34 31.5523 34 31V27C34 26.4477 34.4477 26 35 26H39C39.5523 26 40 25.5523 40 25V23C40 22.4477 39.5523 22 39 22H35C34.4477 22 34 21.5523 34 21V17C34 16.4477 33.5523 16 33 16H30C29.4477 16 29 15.5523 29 15V9C29 8.44772 29.4477 8 30 8H36ZM27 20C27.5522 20 27.9998 20.4479 28 21V27C28 27.5521 27.5521 27.9998 27 28H21C20.4479 27.9998 20 27.5521 20 27V21C20.0002 20.4479 20.4478 20 21 20H27Z" fill="url(#paint0_linear_661_12681)"/>
<defs>
<linearGradient id="paint0_linear_661_12681" x1="-0.566273" y1="40.6089" x2="75.8598" y2="23.5549" gradientUnits="userSpaceOnUse">
<stop stop-color="#FF9B00"/>
<stop offset="1" stop-color="#FE6150"/>
</linearGradient>
</defs>
</svg>
