<svg width="84" height="15" viewBox="0 0 84 15" fill="none" xmlns="http://www.w3.org/2000/svg">
<path d="M0.631507 14V0.782028H4.82549C6.10366 0.782028 7.11452 1.06163 7.85807 1.62083C8.60776 2.18002 8.98261 2.90821 8.98261 3.80539C8.98261 4.55508 8.77061 5.20645 8.3466 5.75951C7.92259 6.31256 7.33574 6.70584 6.58605 6.93935V6.97622C7.49551 7.08069 8.22063 7.41867 8.76139 7.99015C9.3083 8.5555 9.58175 9.2929 9.58175 10.2024C9.58175 11.3331 9.13624 12.2487 8.24521 12.9492C7.35418 13.6497 6.22963 14 4.87158 14H0.631507ZM2.81607 2.54258V6.30334H4.23557C4.99755 6.30334 5.59362 6.12514 6.02378 5.76872C6.46007 5.40617 6.67822 4.89613 6.67822 4.23861C6.67822 3.10792 5.92238 2.54258 4.4107 2.54258H2.81607ZM2.81607 8.0639V12.2487H4.68723C5.50452 12.2487 6.13439 12.0612 6.57683 11.6864C7.02542 11.3054 7.24971 10.7831 7.24971 10.1194C7.24971 8.74907 6.3003 8.0639 4.40149 8.0639H2.81607ZM12.8816 2.57945C12.5314 2.57945 12.2303 2.46577 11.9783 2.2384C11.7325 2.01104 11.6096 1.72222 11.6096 1.37195C11.6096 1.02168 11.7325 0.729795 11.9783 0.496284C12.2303 0.262772 12.5314 0.146017 12.8816 0.146017C13.2442 0.146017 13.5514 0.262772 13.8034 0.496284C14.0553 0.729795 14.1813 1.02168 14.1813 1.37195C14.1813 1.70378 14.0553 1.98953 13.8034 2.22918C13.5514 2.4627 13.2442 2.57945 12.8816 2.57945ZM13.9417 14H11.8032V4.56122H13.9417V14ZM23.7123 5.45533L18.615 12.3316H23.6938V14H15.6192V13.1981L20.8272 6.2296H16.117V4.56122H23.7123V5.45533ZM39.9536 14H37.7782V5.44611C37.7782 4.74558 37.8213 3.88834 37.9073 2.87441H37.8704C37.7352 3.45205 37.6154 3.86684 37.5109 4.11878L33.5658 14H32.0541L28.0998 4.19252C27.9892 3.90371 27.8725 3.46434 27.7496 2.87441H27.7127C27.7618 3.40289 27.7864 4.26626 27.7864 5.46455V14H25.7586V0.782028H28.8464L32.3215 9.58479C32.5857 10.2607 32.7578 10.7646 32.8376 11.0965H32.8837C33.1111 10.4021 33.2954 9.8859 33.4368 9.54792L36.9763 0.782028H39.9536V14ZM44.0554 2.57945C43.7051 2.57945 43.404 2.46577 43.1521 2.2384C42.9063 2.01104 42.7834 1.72222 42.7834 1.37195C42.7834 1.02168 42.9063 0.729795 43.1521 0.496284C43.404 0.262772 43.7051 0.146017 44.0554 0.146017C44.418 0.146017 44.7252 0.262772 44.9772 0.496284C45.2291 0.729795 45.3551 1.02168 45.3551 1.37195C45.3551 1.70378 45.2291 1.98953 44.9772 2.22918C44.7252 2.4627 44.418 2.57945 44.0554 2.57945ZM45.1154 14H42.9769V4.56122H45.1154V14ZM47.3276 13.705V11.7233C48.1265 12.3316 49.0083 12.6358 49.9731 12.6358C51.2635 12.6358 51.9088 12.2548 51.9088 11.4928C51.9088 11.2777 51.8535 11.0965 51.7428 10.949C51.6322 10.7954 51.4817 10.6602 51.2912 10.5434C51.1068 10.4267 50.8856 10.3222 50.6275 10.23C50.3756 10.1378 50.0929 10.0334 49.7795 9.91662C49.3924 9.763 49.0421 9.60015 48.7287 9.42809C48.4215 9.25603 48.1634 9.06246 47.9544 8.84739C47.7516 8.62617 47.598 8.37729 47.4936 8.10077C47.3891 7.82424 47.3369 7.50162 47.3369 7.13292C47.3369 6.67819 47.4444 6.27876 47.6595 5.93464C47.8745 5.58437 48.1634 5.29248 48.5259 5.05897C48.8885 4.81932 49.3002 4.64111 49.7611 4.52435C50.2219 4.40145 50.6982 4.34 51.1898 4.34C52.0624 4.34 52.8428 4.47212 53.531 4.73636V6.60752C52.8674 6.15279 52.1054 5.92542 51.2451 5.92542C50.9747 5.92542 50.7289 5.95308 50.5077 6.00838C50.2926 6.06369 50.1083 6.1405 49.9546 6.23882C49.801 6.33714 49.6812 6.45697 49.5952 6.5983C49.5091 6.7335 49.4661 6.88405 49.4661 7.04996C49.4661 7.25275 49.5091 7.42481 49.5952 7.56615C49.6812 7.70748 49.8072 7.83346 49.9731 7.94407C50.1451 8.04853 50.3479 8.14685 50.5814 8.23903C50.8211 8.32506 51.0945 8.42031 51.4018 8.52477C51.8074 8.69069 52.1699 8.85968 52.4895 9.03174C52.8152 9.2038 53.0917 9.40044 53.319 9.62166C53.5464 9.83674 53.7215 10.0887 53.8444 10.3775C53.9673 10.6602 54.0288 10.9981 54.0288 11.3914C54.0288 11.8707 53.9182 12.2886 53.697 12.645C53.4757 13.0014 53.1808 13.2964 52.8121 13.5299C52.4434 13.7634 52.0163 13.9355 51.5308 14.0461C51.0515 14.1628 50.5446 14.2212 50.0099 14.2212C48.9776 14.2212 48.0835 14.0492 47.3276 13.705ZM55.4759 13.705V11.7233C56.2748 12.3316 57.1566 12.6358 58.1214 12.6358C59.4118 12.6358 60.0571 12.2548 60.0571 11.4928C60.0571 11.2777 60.0018 11.0965 59.8912 10.949C59.7805 10.7954 59.63 10.6602 59.4395 10.5434C59.2551 10.4267 59.0339 10.3222 58.7758 10.23C58.5239 10.1378 58.2412 10.0334 57.9278 9.91662C57.5407 9.763 57.1904 9.60015 56.877 9.42809C56.5698 9.25603 56.3117 9.06246 56.1027 8.84739C55.9 8.62617 55.7463 8.37729 55.6419 8.10077C55.5374 7.82424 55.4852 7.50162 55.4852 7.13292C55.4852 6.67819 55.5927 6.27876 55.8078 5.93464C56.0229 5.58437 56.3117 5.29248 56.6742 5.05897C57.0368 4.81932 57.4485 4.64111 57.9094 4.52435C58.3703 4.40145 58.8465 4.34 59.3381 4.34C60.2107 4.34 60.9911 4.47212 61.6794 4.73636V6.60752C61.0157 6.15279 60.2537 5.92542 59.3934 5.92542C59.123 5.92542 58.8772 5.95308 58.656 6.00838C58.4409 6.06369 58.2566 6.1405 58.103 6.23882C57.9493 6.33714 57.8295 6.45697 57.7435 6.5983C57.6574 6.7335 57.6144 6.88405 57.6144 7.04996C57.6144 7.25275 57.6574 7.42481 57.7435 7.56615C57.8295 7.70748 57.9555 7.83346 58.1214 7.94407C58.2934 8.04853 58.4962 8.14685 58.7297 8.23903C58.9694 8.32506 59.2429 8.42031 59.5501 8.52477C59.9557 8.69069 60.3182 8.85968 60.6378 9.03174C60.9635 9.2038 61.24 9.40044 61.4674 9.62166C61.6947 9.83674 61.8699 10.0887 61.9928 10.3775C62.1157 10.6602 62.1771 10.9981 62.1771 11.3914C62.1771 11.8707 62.0665 12.2886 61.8453 12.645C61.6241 13.0014 61.3291 13.2964 60.9604 13.5299C60.5917 13.7634 60.1646 13.9355 59.6792 14.0461C59.1998 14.1628 58.6929 14.2212 58.1583 14.2212C57.1259 14.2212 56.2318 14.0492 55.4759 13.705ZM68.399 14.2212C66.9426 14.2212 65.7781 13.7819 64.9055 12.9031C64.0391 12.0182 63.6058 10.8476 63.6058 9.39122C63.6058 7.8058 64.0575 6.56758 64.9608 5.67655C65.8703 4.78552 67.0931 4.34 68.6294 4.34C70.1042 4.34 71.2533 4.77323 72.0768 5.63968C72.9002 6.50613 73.3119 7.70748 73.3119 9.24374C73.3119 10.7493 72.8664 11.9568 71.9754 12.8662C71.0905 13.7696 69.8984 14.2212 68.399 14.2212ZM68.5004 6.04525C67.6646 6.04525 67.004 6.33714 66.5186 6.92092C66.0331 7.5047 65.7904 8.3097 65.7904 9.33592C65.7904 10.3253 66.0362 11.1057 66.5278 11.6772C67.0194 12.2425 67.6769 12.5252 68.5004 12.5252C69.3422 12.5252 69.9875 12.2456 70.436 11.6864C70.8908 11.1272 71.1181 10.3314 71.1181 9.29905C71.1181 8.26054 70.8908 7.45861 70.436 6.89327C69.9875 6.32792 69.3422 6.04525 68.5004 6.04525ZM83.9029 14H81.7644V8.68147C81.7644 6.91785 81.1407 6.03603 79.8933 6.03603C79.2419 6.03603 78.7042 6.28183 78.2802 6.77344C77.8562 7.2589 77.6442 7.8734 77.6442 8.61695V14H75.4965V4.56122H77.6442V6.12821H77.681C78.3877 4.93607 79.4078 4.34 80.7413 4.34C81.7675 4.34 82.551 4.67491 83.0917 5.34472C83.6325 6.00838 83.9029 6.97008 83.9029 8.22981V14Z" fill="black"/>
</svg>
