<svg width="158" height="40" viewBox="0 0 158 40" fill="none" xmlns="http://www.w3.org/2000/svg">
<g clip-path="url(#clip0_349_8399)">
<path d="M5.80859 10.6744C6.17919 11.0226 6.78796 11.5474 7.77043 12.2929C9.89045 13.9016 11.5166 14.1685 12.7716 16.3564C13.6832 17.9457 13.435 20.3597 12.9915 21.9212C11.3396 23.5338 9.38033 25.1006 8.23718 27.4508L8.0781 27.6099C8.0781 26.7763 8.16658 24.5872 8.70812 23.2333C9.33327 21.6705 9.96771 20.9314 9.96313 19.1699C9.95824 17.2943 9.33337 16.669 7.77043 14.1683C7.69063 14.0406 7.61315 13.9149 7.53664 13.7922C7.07699 12.684 6.40235 11.7978 5.80859 10.6744Z" fill="url(#paint0_linear_349_8399)"/>
<path d="M8.70622 23.2333C8.16469 24.5872 8.23551 26.616 8.23551 27.4496C7.89262 28.1544 7.62256 28.9294 7.45709 29.7977C7.444 29.8663 7.43288 29.9377 7.42351 30.0114C7.22927 30.3064 7.03 30.6494 6.83069 31.048C6.44514 31.8191 6.18795 32.9168 6.0419 33.8577C5.27609 32.2876 4.64258 30.1331 4.64258 27.297C4.64258 26.9844 4.71096 26.4612 4.71096 26.4612C4.95517 25.734 5.58034 25.109 5.89293 24.7964C7.02707 23.6623 7.14328 24.1712 9.34688 21.7672L8.70622 23.2333Z" fill="url(#paint1_linear_349_8399)"/>
<path d="M8.70622 23.2334C8.16469 24.5872 8.23551 26.6161 8.23551 27.4497C7.89262 28.1544 7.62256 28.9295 7.45709 29.7977C7.444 29.8664 7.43288 29.9377 7.42351 30.0114C7.22927 30.3064 7.03 30.6495 6.83069 31.0481C6.44514 31.8192 6.18795 32.9169 6.0419 33.8577C5.27609 32.2877 4.64258 30.1331 4.64258 27.297C4.64258 26.9844 4.71096 26.4612 4.71096 26.4612C4.95517 25.734 5.58034 25.1091 5.89293 24.7965C7.02707 23.6623 7.17175 24.1309 9.37535 21.7268L8.70622 23.2334Z" fill="url(#paint2_linear_349_8399)"/>
<path d="M7.77024 14.1684C9.33316 16.6691 9.95847 17.2945 9.96335 19.17C9.96626 20.2948 9.70742 21.0022 9.3581 21.774L9.34886 21.7673C7.14529 24.1713 7.029 23.6624 5.89486 24.7965C5.58227 25.1091 4.95709 25.7341 4.71289 26.4612C5.19175 23.4301 8.08294 20.9699 8.08294 16.6692C8.08294 15.4871 7.86488 14.5845 7.53771 13.7949C7.61372 13.9168 7.69095 14.0416 7.77024 14.1684Z" fill="url(#paint3_linear_349_8399)"/>
<path d="M4.95283 2.91534C5.2654 6.35361 8.2479 8.22923 9.33089 8.85451C10.4137 9.47969 15.8952 11.3552 15.8952 16.3566C15.8952 18.7588 14.5842 20.3624 12.9849 21.9234C13.4288 20.362 13.6796 17.9469 12.7675 16.3566C11.5125 14.1686 9.88623 13.9018 7.76612 12.293C6.78201 11.5462 6.1737 11.0202 5.80329 10.672C5.47891 10.058 5.17832 9.37319 4.95161 8.54193C4.01661 5.11353 4.94738 2.92809 4.95283 2.91534Z" fill="url(#paint4_linear_349_8399)"/>
<path d="M7.42336 30.0208C7.12602 32.4044 8.70324 37.2875 8.70729 37.3C8.69681 37.2927 7.21437 36.2592 6.04297 33.8573C6.18904 32.9166 6.4463 31.8192 6.83176 31.0483C7.03106 30.6497 7.23035 30.3066 7.42458 30.0116L7.42336 30.0208Z" fill="url(#paint5_linear_349_8399)"/>
</g>
<path d="M131.222 10.9576C132.249 10.9576 133.215 11.1439 134.12 11.5164C135.04 11.8719 135.837 12.3883 136.512 13.0655C137.233 13.8119 136.701 15.3566 135.592 14.5639C134.81 13.8867 134.097 13.4127 133.453 13.1418C132.824 12.8709 132.096 12.7353 131.268 12.7353C129.49 12.7353 128.398 13.3788 127.432 14.6655C126.482 15.9353 126.006 17.747 126.006 20.1002C126.006 22.4704 126.482 24.2989 127.432 25.5856C128.398 26.8554 129.49 27.4902 131.268 27.4902C132.081 27.4902 132.809 27.3549 133.453 27.084C134.097 26.8132 134.81 26.3391 135.592 25.6619C136.714 24.8599 137.238 26.4087 136.512 27.1603C135.837 27.8375 135.04 28.3623 134.12 28.7348C133.215 29.0903 132.249 29.2679 131.222 29.2679C129.689 29.2679 128.643 28.904 127.524 28.176C126.405 27.431 125.539 26.3728 124.925 25.0015C124.328 23.6132 124.029 21.9795 124.029 20.1002C124.029 18.2379 124.328 16.621 124.925 15.2497C125.539 13.8614 126.405 12.8032 127.524 12.0752C128.643 11.3302 129.689 10.9576 131.222 10.9576Z" fill="#19182C"/>
<path fill-rule="evenodd" clip-rule="evenodd" d="M54.7718 10.9474C56.4346 10.9474 57.8707 11.3198 59.08 12.0647C60.306 12.7927 61.2381 13.851 61.8763 15.2392C62.5313 16.6106 62.8589 18.2275 62.8589 20.0898C62.8589 21.9522 62.5314 23.5777 61.8763 24.966C61.2213 26.3373 60.2807 27.3956 59.0547 28.1405C57.8454 28.8854 56.4178 29.2578 54.7718 29.2578C53.1259 29.2578 51.6897 28.8855 50.4636 28.1405C49.2544 27.3956 48.3223 26.3373 47.6673 24.966C47.0123 23.5947 46.6848 21.9777 46.6848 20.1154C46.6848 18.2362 47.0038 16.6106 47.642 15.2392C48.297 13.851 49.2293 12.7927 50.4386 12.0647C51.6647 11.3198 53.1091 10.9474 54.7718 10.9474ZM54.7718 12.7251C52.8907 12.7251 51.421 13.3684 50.3629 14.6551C49.3216 15.9249 48.801 17.7365 48.801 20.0898C48.801 22.4432 49.3216 24.2634 50.3629 25.5501C51.421 26.8368 52.8907 27.4801 54.7718 27.4801C56.6529 27.4801 58.1141 26.8452 59.1554 25.5755C60.2135 24.2887 60.7427 22.4601 60.7427 20.0898C60.7426 17.7196 60.222 15.8996 59.1807 14.6298C58.1394 13.36 56.6697 12.7251 54.7718 12.7251Z" fill="#19182C"/>
<path d="M26.6313 11.3402C26.9957 11.3403 27.3254 11.5562 27.4708 11.8904L33.9095 26.6924L40.3474 11.8904C40.4927 11.5562 40.8225 11.3402 41.1869 11.3402H42.2595C42.4928 11.3402 42.7088 11.4637 42.8272 11.6648C42.9465 11.8674 43.0095 12.0981 43.0096 12.3332V28.2582C43.0095 28.5953 42.7363 28.8686 42.3992 28.8686H41.5853C41.2483 28.8685 40.975 28.5953 40.975 28.2582V15.0539L35.0092 28.308C34.7526 28.796 34.3767 29.0402 33.8818 29.0402C33.4053 29.0402 33.0296 28.796 32.7547 28.308L26.7612 15.1799V28.2582C26.7612 28.5953 26.4879 28.8686 26.1509 28.8686H25.3096C24.9725 28.8686 24.6993 28.5953 24.6992 28.2582V12.2417C24.6992 12.0652 24.7354 11.8905 24.8056 11.7286C24.9079 11.4927 25.1404 11.3403 25.3975 11.3402H26.6313Z" fill="#19182C"/>
<path d="M68.2909 11.2911C68.7345 11.2911 69.1432 11.5317 69.3584 11.9196L77.486 26.5697V11.5962C77.486 11.4277 77.6227 11.2911 77.7912 11.2911H78.9275C79.0961 11.2911 79.2327 11.4277 79.2327 11.5962V28.3807C79.2327 28.7178 78.9594 28.9911 78.6224 28.9911H77.3653C77.1448 28.9911 76.9414 28.8719 76.8334 28.6796L68.1622 13.2538V28.3807C68.1621 28.7178 67.8889 28.9911 67.5518 28.9911H67.0258C66.6888 28.9911 66.4155 28.7178 66.4155 28.3807V12.0504C66.4155 11.9667 66.4294 11.8835 66.4566 11.8043C66.5618 11.4973 66.8503 11.2911 67.1748 11.2911H68.2909Z" fill="#19182C"/>
<path d="M93.335 11.2628C93.6721 11.2628 93.9453 11.5361 93.9454 11.8731V12.3598C93.9454 12.6968 93.6721 12.9701 93.335 12.9701H86.1998V19.1212H92.2285C92.5655 19.1213 92.8388 19.3945 92.8388 19.7316V20.218C92.8388 20.555 92.5655 20.8282 92.2285 20.8283H86.1998V27.2557H93.335C93.6721 27.2557 93.9454 27.529 93.9454 27.866V28.3524C93.9454 28.6895 93.6721 28.9628 93.335 28.9628H85.2271C84.9113 28.9627 84.6535 28.8709 84.454 28.6868C84.2712 28.5027 84.1799 28.2599 84.1798 27.9587V12.2671C84.1799 11.9659 84.2712 11.7231 84.454 11.539C84.6535 11.3549 84.9113 11.2628 85.2271 11.2628H93.335Z" fill="#19182C"/>
<path d="M108.288 11.2628C108.626 11.2628 108.899 11.5361 108.899 11.8731V12.4426C108.899 12.7797 108.626 13.053 108.288 13.053H103.345V28.3524C103.345 28.6895 103.072 28.9627 102.735 28.9628H101.94C101.603 28.9627 101.33 28.6895 101.33 28.3524V13.053H96.3867C96.0497 13.053 95.7764 12.7797 95.7764 12.4426V11.8731C95.7765 11.5361 96.0497 11.2628 96.3867 11.2628H108.288Z" fill="#19182C"/>
<path d="M120.801 11.2628C121.138 11.2628 121.411 11.5361 121.411 11.8731V12.3598C121.411 12.6968 121.138 12.9701 120.801 12.9701H113.665V19.1212H119.694C120.031 19.1213 120.304 19.3945 120.304 19.7316V20.218C120.304 20.555 120.031 20.8282 119.694 20.8283H113.665V27.2557H120.801C121.138 27.2557 121.411 27.529 121.411 27.866V28.3524C121.411 28.6895 121.138 28.9628 120.801 28.9628H112.693C112.377 28.9627 112.119 28.8709 111.92 28.6868C111.737 28.5027 111.645 28.2599 111.645 27.9587V12.2671C111.645 11.9659 111.737 11.7231 111.92 11.539C112.119 11.3549 112.377 11.2628 112.693 11.2628H120.801Z" fill="#19182C"/>
<path d="M141.109 11.2628C141.446 11.2628 141.719 11.5361 141.719 11.8731V18.9213H150.54V11.8731C150.54 11.5361 150.814 11.2628 151.151 11.2628H151.623C151.96 11.2628 152.233 11.5361 152.233 11.8731V28.3524C152.233 28.6895 151.96 28.9628 151.623 28.9628H151.151C150.814 28.9628 150.54 28.6895 150.54 28.3524V20.7127H141.719V28.3524C141.719 28.6895 141.446 28.9628 141.109 28.9628H140.637C140.3 28.9628 140.026 28.6895 140.026 28.3524V11.8731C140.026 11.5361 140.3 11.2628 140.637 11.2628H141.109Z" fill="#19182C"/>
<defs>
<linearGradient id="paint0_linear_349_8399" x1="5.89649" y1="11.3587" x2="12.9439" y2="23.7699" gradientUnits="userSpaceOnUse">
<stop stop-color="#E5E5E5"/>
<stop offset="1" stop-color="#393941"/>
</linearGradient>
<linearGradient id="paint1_linear_349_8399" x1="9.64398" y1="26.3594" x2="3.70481" y2="28.2349" gradientUnits="userSpaceOnUse">
<stop stop-color="#866DBE"/>
<stop offset="0.265849" stop-color="#624C96"/>
<stop offset="1" stop-color="#402C75"/>
</linearGradient>
<linearGradient id="paint2_linear_349_8399" x1="9.14297" y1="27.1265" x2="4.62999" y2="27.7712" gradientUnits="userSpaceOnUse">
<stop stop-color="#B7B7B7"/>
<stop offset="0.519808" stop-color="#6B6B70"/>
<stop offset="1" stop-color="#44444B"/>
</linearGradient>
<linearGradient id="paint3_linear_349_8399" x1="8.39554" y1="16.3566" x2="7.14522" y2="26.9844" gradientUnits="userSpaceOnUse">
<stop stop-color="#393941"/>
<stop offset="1" stop-color="#D1D1D1"/>
</linearGradient>
<linearGradient id="paint4_linear_349_8399" x1="7.42209" y1="6.06585" x2="14.0841" y2="21.9688" gradientUnits="userSpaceOnUse">
<stop stop-color="#34333C"/>
<stop offset="1" stop-color="#D2D2D2"/>
</linearGradient>
<linearGradient id="paint5_linear_349_8399" x1="5.06079" y1="30.35" x2="8.49926" y2="36.3674" gradientUnits="userSpaceOnUse">
<stop stop-color="#CDCDCD"/>
<stop offset="1" stop-color="#505053"/>
</linearGradient>
<clipPath id="clip0_349_8399">
<rect width="11.3601" height="34.3847" fill="white" transform="translate(4.53516 2.91534)"/>
</clipPath>
</defs>
</svg>
