<svg width="35" height="34" viewBox="0 0 35 34" fill="none" xmlns="http://www.w3.org/2000/svg">
<path d="M8.33203 5C8.33203 5.55228 8.77975 6 9.33203 6H25.332C25.8843 6 26.332 5.55228 26.332 5V1C26.332 0.447715 26.7797 0 27.332 0H33.332C33.8843 0 34.332 0.447715 34.332 1V7C34.332 7.55228 33.8843 8 33.332 8H29.332C28.7797 8 28.332 8.44771 28.332 9V12C28.332 12.5523 28.7797 13 29.332 13H32.332C32.8843 13 33.332 13.4477 33.332 14V20C33.332 20.5523 32.8843 21 32.332 21H29.332C28.7797 21 28.332 21.4477 28.332 22V25C28.332 25.5523 28.7797 26 29.332 26H33.332C33.8843 26 34.332 26.4477 34.332 27V33C34.332 33.5523 33.8843 34 33.332 34H27.332C26.7797 34 26.332 33.5523 26.332 33V29C26.332 28.4477 25.8843 28 25.332 28H9.33203C8.77975 28 8.33203 28.4477 8.33203 29V33C8.33203 33.5523 7.88432 34 7.33203 34H1.33203C0.779747 34 0.332031 33.5523 0.332031 33V27C0.332031 26.4477 0.779747 26 1.33203 26H5.33203C5.88432 26 6.33203 25.5523 6.33203 25V22C6.33203 21.4477 5.88432 21 5.33203 21H2.33203C1.77975 21 1.33203 20.5523 1.33203 20V14C1.33203 13.4477 1.77975 13 2.33203 13H5.33203C5.88432 13 6.33203 12.5523 6.33203 12V9C6.33203 8.44771 5.88432 8 5.33203 8H1.33203C0.779747 8 0.332031 7.55228 0.332031 7V1C0.332031 0.447715 0.779747 0 1.33203 0H7.33203C7.88432 0 8.33203 0.447715 8.33203 1V5ZM9.33203 19C9.33203 19.5523 9.77975 20 10.332 20H24.332C24.8843 20 25.332 19.5523 25.332 19V15C25.332 14.4477 24.8843 14 24.332 14H10.332C9.77975 14 9.33203 14.4477 9.33203 15V19Z" fill="url(#paint0_linear_668_14955)"/>
<defs>
<linearGradient id="paint0_linear_668_14955" x1="-0.0690791" y1="34.6469" x2="55.5312" y2="26.3757" gradientUnits="userSpaceOnUse">
<stop stop-color="#FF9B00"/>
<stop offset="1" stop-color="#FE6150"/>
</linearGradient>
</defs>
</svg>
