<svg width="33" height="34" viewBox="0 0 33 34" fill="none" xmlns="http://www.w3.org/2000/svg">
<path d="M20.6758 4.99963C20.6758 5.55192 21.1235 5.99963 21.6758 5.99963H26.6758C27.2281 5.99963 27.6758 6.44735 27.6758 6.99963V11.9996C27.6758 12.5519 28.1235 12.9996 28.6758 12.9996H31.6758C32.2281 12.9996 32.6758 13.4473 32.6758 13.9996V19.9996C32.6758 20.5519 32.2281 20.9996 31.6758 20.9996H28.6758C28.1235 20.9996 27.6758 21.4473 27.6758 21.9996V26.9996C27.6758 27.5519 27.2281 27.9996 26.6758 27.9996H21.6758C21.1235 27.9996 20.6758 28.4473 20.6758 28.9996V32.9996C20.6758 33.5519 20.2281 33.9996 19.6758 33.9996H13.6758C13.1235 33.9996 12.6758 33.5519 12.6758 32.9996V28.9996C12.6758 28.4473 12.2281 27.9996 11.6758 27.9996H6.67578C6.1235 27.9996 5.67578 27.5519 5.67578 26.9996V21.9996C5.67578 21.4473 5.22807 20.9996 4.67578 20.9996H1.67578C1.1235 20.9996 0.675781 20.5519 0.675781 19.9996V13.9996C0.675781 13.4473 1.1235 12.9996 1.67578 12.9996H4.67578C5.22807 12.9996 5.67578 12.5519 5.67578 11.9996V6.99963C5.67578 6.44735 6.1235 5.99963 6.67578 5.99963H11.6758C12.2281 5.99963 12.6758 5.55192 12.6758 4.99963V1.19983C12.6758 0.647544 13.1235 0.199829 13.6758 0.199829H19.6758C20.2281 0.199829 20.6758 0.647544 20.6758 1.19983V4.99963ZM13.6758 12.9996C13.6758 13.5519 13.2281 13.9996 12.6758 13.9996H9.67578C9.1235 13.9996 8.67578 14.4473 8.67578 14.9996V18.9996C8.67578 19.5519 9.1235 19.9996 9.67578 19.9996H12.6758C13.2281 19.9996 13.6758 20.4473 13.6758 20.9996V24.9996C13.6758 25.5519 14.1235 25.9996 14.6758 25.9996H18.6758C19.2281 25.9996 19.6758 25.5519 19.6758 24.9996V20.9996C19.6758 20.4473 20.1235 19.9996 20.6758 19.9996H23.6758C24.2281 19.9996 24.6758 19.5519 24.6758 18.9996V14.9996C24.6758 14.4473 24.2281 13.9996 23.6758 13.9996H20.6758C20.1235 13.9996 19.6758 13.5519 19.6758 12.9996V9.19983C19.6758 8.64754 19.2281 8.19983 18.6758 8.19983H14.6758C14.1235 8.19983 13.6758 8.64754 13.6758 9.19983V12.9996Z" fill="url(#paint0_linear_668_14676)"/>
<defs>
<linearGradient id="paint0_linear_668_14676" x1="0.298266" y1="34.6428" x2="52.7457" y2="27.256" gradientUnits="userSpaceOnUse">
<stop stop-color="#FF9B00"/>
<stop offset="1" stop-color="#FE6150"/>
</linearGradient>
</defs>
</svg>
