<svg width="34" height="34" viewBox="0 0 34 34" fill="none" xmlns="http://www.w3.org/2000/svg">
<path d="M8 4.99988C8 5.55216 8.44771 5.99988 9 5.99988H12C12.5523 5.99988 13 5.55216 13 4.99988V0.999878C13 0.447593 13.4477 -0.00012207 14 -0.00012207H20C20.5523 -0.00012207 21 0.447593 21 0.999878V4.99988C21 5.55216 21.4477 5.99988 22 5.99988H25C25.5523 5.99988 26 5.55216 26 4.99988V0.999878C26 0.447593 26.4477 -0.00012207 27 -0.00012207H33C33.5523 -0.00012207 34 0.447593 34 0.999878V6.99988C34 7.55216 33.5523 7.99988 33 7.99988H29C28.4477 7.99988 28 8.44759 28 8.99988V11.9999C28 12.5522 28.4477 12.9999 29 12.9999H32.6016C33.1538 12.9999 33.6016 13.4476 33.6016 13.9999V19.9999C33.6016 20.5522 33.1538 20.9999 32.6016 20.9999H29C28.4477 20.9999 28 21.4476 28 21.9999V24.9999C28 25.5522 28.4477 25.9999 29 25.9999H33C33.5523 25.9999 34 26.4476 34 26.9999V32.9999C34 33.5522 33.5523 33.9999 33 33.9999H27C26.4477 33.9999 26 33.5522 26 32.9999V28.9999C26 28.4476 25.5523 27.9999 25 27.9999H22C21.4477 27.9999 21 28.4476 21 28.9999V32.9999C21 33.5522 20.5523 33.9999 20 33.9999H14C13.4477 33.9999 13 33.5522 13 32.9999V28.9999C13 28.4476 12.5523 27.9999 12 27.9999H9C8.44771 27.9999 8 28.4476 8 28.9999V32.9999C8 33.5522 7.55228 33.9999 7 33.9999H1C0.447715 33.9999 0 33.5522 0 32.9999V26.9999C0 26.4476 0.447715 25.9999 1 25.9999H5C5.55228 25.9999 6 25.5522 6 24.9999V21.9999C6 21.4476 5.55228 20.9999 5 20.9999H1.40234C0.850059 20.9999 0.402344 20.5522 0.402344 19.9999V13.9999C0.402344 13.4476 0.850059 12.9999 1.40234 12.9999H5C5.55228 12.9999 6 12.5522 6 11.9999V8.99988C6 8.44759 5.55228 7.99988 5 7.99988H1C0.447715 7.99988 0 7.55216 0 6.99988V0.999878C0 0.447593 0.447715 -0.00012207 1 -0.00012207H7C7.55228 -0.00012207 8 0.447593 8 0.999878V4.99988ZM14 12.9999C14 13.5522 13.5523 13.9999 13 13.9999H9.40234C8.85006 13.9999 8.40234 14.4476 8.40234 14.9999V18.9999C8.40234 19.5522 8.85006 19.9999 9.40234 19.9999H13C13.5523 19.9999 14 20.4476 14 20.9999V24.9999C14 25.5522 14.4477 25.9999 15 25.9999H19C19.5523 25.9999 20 25.5522 20 24.9999V20.9999C20 20.4476 20.4477 19.9999 21 19.9999H24.6016C25.1538 19.9999 25.6016 19.5522 25.6016 18.9999V14.9999C25.6016 14.4476 25.1538 13.9999 24.6016 13.9999H21C20.4477 13.9999 20 13.5522 20 12.9999V8.99988C20 8.44759 19.5523 7.99988 19 7.99988H15C14.4477 7.99988 14 8.44759 14 8.99988V12.9999Z" fill="url(#paint0_linear_668_14970)"/>
<defs>
<linearGradient id="paint0_linear_668_14970" x1="-0.40111" y1="34.6468" x2="55.1992" y2="26.3756" gradientUnits="userSpaceOnUse">
<stop stop-color="#FF9B00"/>
<stop offset="1" stop-color="#FE6150"/>
</linearGradient>
</defs>
</svg>
