<svg width="76" height="41" viewBox="0 0 76 41" fill="none" xmlns="http://www.w3.org/2000/svg">
<g clip-path="url(#clip0_349_8386)">
<mask id="mask0_349_8386" style="mask-type:luminance" maskUnits="userSpaceOnUse" x="-9" y="4" width="96" height="32">
<path d="M86.3312 4.3205H-8.97461V35.7491H86.3312V4.3205Z" fill="white"/>
</mask>
<g mask="url(#mask0_349_8386)">
<path d="M26.0097 9.914V25.4579H29.0629V29.3469H20.9883V9.914H26.0097ZM40.1835 9.914L43.0577 29.3469H37.9174L37.6668 25.8541H35.8659L35.5676 29.3469H30.3676L32.9198 9.914H40.1835ZM37.5238 22.409C37.2692 20.2086 37.0149 17.4916 36.7603 14.2592C36.2514 17.972 35.9334 20.6887 35.8063 22.409H37.5238ZM56.3491 9.914V29.3469H51.9478L49.3359 20.5126V29.3469H45.1378V9.914H49.3359L52.1509 18.664V9.914H56.3491ZM68.269 9.914L71.1428 29.3469H66.0025L65.7522 25.8541H63.9511L63.6528 29.3469H58.4528L61.0053 9.914H68.269ZM65.6092 22.409C65.3547 20.2086 65.1001 17.4916 64.8456 14.2592C64.3364 17.972 64.0189 20.6887 63.8914 22.409H65.6092Z" fill="#19182C"/>
<path d="M18.0352 23.7336C18.0352 24.5531 17.8316 25.3233 17.4245 26.0444C17.0336 26.7654 16.4475 27.3719 15.6658 27.8635C14.9005 28.3551 13.9886 28.6502 12.9301 28.7483V30.7398H11.3424V28.7483C9.81169 28.6009 8.5741 28.1175 7.62961 27.298C6.68515 26.4785 6.21289 25.3972 6.21289 24.0533H9.19287C9.24176 24.6922 9.44528 25.2248 9.80353 25.6512C10.1618 26.0607 10.6747 26.323 11.3424 26.4379V21.0297C10.2514 20.751 9.36389 20.4724 8.67995 20.1938C7.99602 19.8987 7.40979 19.4399 6.92125 18.817C6.44902 18.1944 6.21289 17.3421 6.21289 16.2608C6.21289 14.9004 6.68515 13.7777 7.62961 12.8929C8.5741 11.9913 9.81169 11.4669 11.3424 11.3195V9.32843H12.9301V11.3195C14.3631 11.4505 15.5111 11.9096 16.3741 12.6963C17.2535 13.4662 17.7502 14.5315 17.8641 15.8919H14.8842C14.8353 15.3838 14.6399 14.9332 14.298 14.5397C13.956 14.1301 13.5 13.8515 12.9301 13.7042V19.0139C14.0211 19.2761 14.9086 19.5548 15.5925 19.8495C16.2764 20.1281 16.8545 20.5791 17.3268 21.2016C17.799 21.8081 18.0352 22.6518 18.0352 23.7336ZM9.04633 16.113C9.04633 16.7848 9.24176 17.3093 9.63256 17.6864C10.0397 18.0631 10.6096 18.3664 11.3424 18.5958V13.6303C10.6422 13.7124 10.0804 13.9664 9.65698 14.3924C9.24988 14.8183 9.04633 15.392 9.04633 16.113ZM12.9301 26.4379C13.6466 26.323 14.2084 26.0362 14.6155 25.5773C15.0226 25.1021 15.2261 24.5367 15.2261 23.8813C15.2261 23.2256 15.0226 22.7175 14.6155 22.3572C14.2247 21.9801 13.6629 21.6768 12.9301 21.4474V26.4379Z" fill="#696969"/>
</g>
</g>
<defs>
<clipPath id="clip0_349_8386">
<rect width="75" height="40" fill="white" transform="translate(0.642578 0.0348511)"/>
</clipPath>
</defs>
</svg>
