<svg width="85" height="29" viewBox="0 0 85 29" fill="none" xmlns="http://www.w3.org/2000/svg">
<mask id="mask0_265_7825" style="mask-type:luminance" maskUnits="userSpaceOnUse" x="0" y="0" width="85" height="29">
<path d="M84.5398 0.678772H0.460938V28.321H84.5398V0.678772Z" fill="white"/>
</mask>
<g mask="url(#mask0_265_7825)">
<path d="M26.0942 1.43414V21.5015H30.048V26.5223H19.5918V1.43414H26.0942ZM44.4484 1.43414L48.1703 26.5223H41.5139L41.1895 22.013H38.8574L38.4711 26.5223H31.7374L35.0423 1.43414H44.4484ZM41.0042 17.5653C40.6745 14.7246 40.3453 11.217 40.0156 7.04378C39.3566 11.8372 38.9448 15.3444 38.7802 17.5653H41.0042ZM65.3818 1.43414V26.5223H59.6824L56.3002 15.1171V26.5223H50.8638V1.43414H56.3002L59.9454 12.7305V1.43414H65.3818ZM80.8173 1.43414L84.5386 26.5223H77.8824L77.5583 22.013H75.226L74.8397 26.5223H68.106L71.4113 1.43414H80.8173ZM77.3731 17.5653C77.0434 14.7246 76.7138 11.217 76.3842 7.04378C75.7249 11.8372 75.3137 15.3444 75.1486 17.5653H77.3731Z" fill="#19182C"/>
<path d="M15.77 19.2753C15.77 20.3333 15.5065 21.3277 14.9792 22.2586C14.4731 23.1894 13.7141 23.9724 12.7019 24.6071C11.7108 25.2418 10.5299 25.6227 9.15931 25.7494V28.3204H7.10327V25.7494C5.12115 25.5591 3.51855 24.935 2.29549 23.8771C1.07249 22.8191 0.460938 21.4231 0.460938 19.688H4.31982C4.38313 20.5129 4.64667 21.2006 5.11059 21.751C5.57451 22.2797 6.23875 22.6183 7.10327 22.7666V15.7845C5.69051 15.4248 4.54128 15.0651 3.65563 14.7054C2.76997 14.3245 2.01084 13.7321 1.37822 12.9279C0.766711 12.1242 0.460938 11.0238 0.460938 9.62784C0.460938 7.87159 1.07249 6.4221 2.29549 5.27985C3.51855 4.11593 5.12115 3.43886 7.10327 3.24865V0.678101H9.15931V3.24865C11.0149 3.41767 12.5015 4.01047 13.6191 5.02606C14.7578 6.02 15.401 7.39531 15.5485 9.15156H11.6897C11.6264 8.49568 11.3734 7.91395 10.9306 7.40588C10.4877 6.87717 9.89729 6.51745 9.15931 6.32723V13.1822C10.5721 13.5207 11.7213 13.8805 12.607 14.2609C13.4926 14.6206 14.2412 15.2028 14.8527 16.0065C15.4642 16.7895 15.77 17.8788 15.77 19.2753ZM4.13006 9.43711C4.13006 10.3044 4.38313 10.9815 4.88919 11.4683C5.41636 11.9547 6.15438 12.3462 7.10327 12.6424V6.23189C6.19657 6.33783 5.46906 6.66577 4.92082 7.21571C4.39364 7.76565 4.13006 8.50625 4.13006 9.43711ZM9.15931 22.7666C10.0871 22.6183 10.8146 22.248 11.3417 21.6556C11.8689 21.0422 12.1325 20.3121 12.1325 19.466C12.1325 18.6195 11.8689 17.9636 11.3417 17.4984C10.8357 17.0115 10.1082 16.62 9.15931 16.3238V22.7666Z" fill="#19182C"/>
</g>
</svg>
