<svg width="151" height="41" viewBox="0 0 151 41" fill="none" xmlns="http://www.w3.org/2000/svg">
<path d="M9.49891 9.26451V7.51892V5.76886C9.49891 5.76886 10.0467 6.03222 10.492 6.28312C10.702 6.40141 11.2659 6.71918 11.7451 6.98935C12.2244 7.25948 12.9564 7.67064 13.3717 7.90302C14.8792 8.74655 17.8204 10.4011 18.4139 10.7396C18.8707 11.0002 19.0107 11.0971 18.9773 11.1297C18.9529 11.1534 18.9207 11.1729 18.9057 11.1729C18.8753 11.1729 18.8308 11.1976 17.4381 11.9863C16.2421 12.6636 15.925 12.8335 15.8544 12.8348C15.8082 12.8356 15.6481 12.7505 14.8627 12.3075C14.7988 12.2715 14.5984 12.1565 14.4173 12.0521C14.2363 11.9477 13.9487 11.7866 13.7783 11.6942C13.4932 11.5396 12.5503 11.0113 10.9899 10.1318C10.6491 9.93979 10.3093 9.74914 10.2348 9.70825C9.79084 9.46461 9.49891 9.26451 9.49891 9.26451ZM3.13672 12.8169V9.38219C3.13672 9.38219 3.86414 9.71626 5.16144 10.4488C5.76849 10.7916 6.46559 11.1817 6.71054 11.3158C6.95549 11.4499 7.17334 11.5723 7.19463 11.5879C7.21594 11.6035 7.77361 11.9188 8.43389 12.2886L10.5446 13.4706C11.8311 14.1913 13.6192 15.192 14.7078 15.8007C15.219 16.0865 15.6906 16.352 15.7559 16.3907L15.8745 16.4611L16.2787 16.2309C16.501 16.1043 17.4497 15.5717 18.3869 15.0474C20.1798 14.0443 24.2223 11.7735 24.8157 11.4362C25.0074 11.3273 25.2209 11.2147 25.2901 11.1861L25.416 11.1342V12.8873C25.416 14.2443 25.405 14.649 25.3676 14.6785C25.3409 14.6994 24.927 14.9368 24.4478 15.2061C23.9685 15.4754 22.766 16.1522 21.7756 16.7102C19.8372 17.8023 18.9254 18.3149 17.1091 19.3333L15.9476 19.9846L15.7952 19.9401C15.6421 19.8953 14.6603 19.3503 8.78249 16.0469C7.03585 15.0653 4.85162 13.8388 4.85162 13.8388L3.13672 12.8169ZM13.1974 21.5542C14.2411 20.9699 15.2258 20.4118 15.3855 20.3139C15.5453 20.216 15.7152 20.1344 15.7631 20.1326L15.8502 20.1294V20.9788C15.8502 21.8189 15.8493 21.8288 15.7631 21.8809C15.5898 21.9855 11.3741 24.3528 11.2533 24.4132C11.1851 24.4474 11.1 24.4753 11.0641 24.4753C11.0283 24.4753 10.678 24.2854 10.2857 24.0534C9.68833 23.7 9.58097 23.6232 9.62461 23.5806C9.67968 23.527 10.146 23.2625 13.1974 21.5542ZM3.1476 27.1933V25.4397V23.6859L3.31696 23.7591C3.53759 23.8543 4.33356 24.2835 5.06462 24.7013C5.38412 24.884 6.11607 25.2966 6.69117 25.6184L8.24026 26.485C8.51717 26.6399 9.01386 26.9172 9.34401 27.1013C9.67415 27.2854 10.1902 27.5777 10.4909 27.7507C10.7916 27.9238 11.0567 28.0655 11.0801 28.0655C11.1036 28.0655 11.2849 27.9742 11.4829 27.8625C11.6811 27.7509 12.0433 27.5498 12.288 27.4156C12.9668 27.0431 16.2239 25.2229 16.8493 24.8664C17.3782 24.565 17.5326 24.5084 17.6143 24.5858C17.6622 24.6311 18.742 25.2378 18.8807 25.2973C18.9393 25.3224 18.9872 25.3591 18.9872 25.3789C18.9872 25.4127 18.7855 25.5712 18.7425 25.5712C18.7206 25.5712 17.7738 26.1054 17.3219 26.3726C17.1622 26.4671 16.831 26.6542 16.5861 26.7884C16.3411 26.9226 15.9142 27.1599 15.6373 27.3159C15.3603 27.4718 14.7765 27.7995 14.3399 28.0441C13.9032 28.2886 13.4675 28.5362 13.3717 28.5942C13.2759 28.6523 13.0885 28.7544 12.9554 28.8211C12.8222 28.8878 12.7133 28.9554 12.7133 28.9713C12.7133 29.0045 12.803 29.0562 14.5579 30.0338C15.2636 30.427 15.8616 30.7486 15.8868 30.7486C15.912 30.7486 16.3977 30.4866 16.9662 30.1665C18.6341 29.227 23.3286 26.5908 23.5183 26.487C23.9311 26.2615 24.5326 25.922 24.8738 25.7219C25.0762 25.6033 25.2806 25.4943 25.3281 25.4797L25.4144 25.4533L25.4249 27.1995L25.4353 28.9456L25.2804 29.0416C25.0239 29.2005 23.0713 30.3005 17.6705 33.3288C17.1912 33.5975 16.7381 33.8517 16.6635 33.8937L16.2337 34.1354C16.0719 34.2264 15.9124 34.3009 15.8794 34.3009C15.8047 34.3009 15.5122 34.1516 14.9706 33.8371C14.7408 33.7035 14.2479 33.4244 13.8752 33.2167C12.8644 32.6533 12.7546 32.5866 12.7351 32.5248C12.7253 32.4936 12.7138 32.1279 12.7095 31.7123C12.7012 30.8973 12.694 30.8242 12.6223 30.8242C12.5964 30.8242 12.2548 31.0027 11.8631 31.221C11.4715 31.4392 11.1177 31.6178 11.0768 31.6178C11.0152 31.6178 10.7172 31.4693 10.4671 31.3141C10.3742 31.2564 8.75866 30.3512 8.13556 30.0077C7.82233 29.8351 7.49992 29.6521 7.4191 29.6012C7.33823 29.5503 6.90612 29.3051 6.45881 29.0562C6.01151 28.8074 5.3754 28.4515 5.04525 28.2655C4.7151 28.0794 4.36655 27.8841 4.2707 27.8315C3.96645 27.6647 3.83374 27.5899 3.48647 27.3892L3.1476 27.1933Z" fill="#19182C"/>
<path fill-rule="evenodd" clip-rule="evenodd" d="M33.302 18.1692C33.315 24.6294 33.3245 25.5856 33.379 25.8797C33.584 26.9839 33.9518 27.7349 34.5926 28.3571C35.4241 29.1645 36.4817 29.5285 37.9942 29.528C39.312 29.5275 40.2948 29.2346 41.1229 28.5957C41.6844 28.1624 42.0955 27.5685 42.3805 26.779C42.695 25.9077 42.6789 26.3754 42.6789 18.14V10.8141L41.2082 10.8039L39.7375 10.7936L39.7267 18.1883L39.7159 25.583L39.6256 25.8143C39.3131 26.6152 38.768 26.9328 37.7919 26.8831C37.4562 26.8659 37.3763 26.8467 37.1143 26.7204C36.6811 26.5114 36.4745 26.2535 36.2976 25.7004C36.242 25.5267 36.2336 24.6863 36.2226 18.1497L36.2102 10.7946H34.7487H33.2871L33.302 18.1692ZM45.8097 10.8195C45.7754 10.8531 45.7733 27.1252 45.8075 28.3251L45.8345 29.2699L47.2396 29.2824C48.0125 29.2892 48.6591 29.2844 48.6766 29.2716C48.6941 29.2588 48.7195 27.7951 48.7331 26.0189L48.7579 22.7895L48.9415 22.7868C50.3834 22.7659 51.2524 22.6838 51.8479 22.5122C52.9312 22.2 53.8836 21.4073 54.3075 20.4647C54.4523 20.1429 54.6419 19.5166 54.7217 19.0972C54.8061 18.6538 54.8109 18.5264 54.8106 16.7529C54.8103 14.9628 54.8061 14.8562 54.7187 14.4086C54.6181 13.8932 54.4075 13.2485 54.221 12.8849C53.6579 11.787 52.5175 11.0523 51.0709 10.8554C50.7071 10.8059 50.1788 10.7946 48.2296 10.7946C46.9127 10.7946 45.8238 10.8058 45.8097 10.8195ZM57.2734 20.0271V29.2637L58.6836 29.2844C59.4596 29.2959 60.1167 29.2966 60.1451 29.286C60.1859 29.2707 60.1963 28.6197 60.1963 26.0282C60.1963 24.2469 60.2006 22.7888 60.2061 22.7879C60.2115 22.787 60.6398 22.7772 61.157 22.766C62.7775 22.731 63.5927 22.5439 64.4095 22.0191C65.1315 21.5549 65.6312 20.9117 65.9238 20.0687C66.2442 19.1477 66.2824 18.788 66.2818 16.7153C66.2813 15.2845 66.2715 15.0099 66.2039 14.5845C65.9696 13.1122 65.4236 12.1711 64.4308 11.5279C64.015 11.2586 63.9414 11.2229 63.4995 11.0753C62.7334 10.8196 62.7203 10.8186 59.8661 10.8038L57.2734 10.7904V20.0271ZM68.7246 20.0347V29.2753L72.1183 29.2784C73.9846 29.2801 76.0918 29.2978 76.0918 29.2978L76.7729 29.2948L76.7925 27.9385V26.638L74.22 26.6279L71.6475 26.6179V23.9597V21.3016L73.7596 21.3048C74.9213 21.3065 76.0313 21.3047 76.0313 21.3047V19.986L76.0302 18.6674L73.8391 18.6573L71.6475 18.6472V16.0493V13.4514H74.2059C76.2465 13.4514 76.768 13.4413 76.7838 13.4014C76.7947 13.374 76.8013 12.7806 76.798 12.0828L76.7925 10.8141L72.7586 10.8042L68.7246 10.7942V20.0347ZM79.7759 20.0349V29.2753H81.2314H82.6868L82.7157 27.985C82.7315 27.2754 82.7315 25.6749 82.7157 24.4283L82.6863 22.1618L83.1827 22.1728L83.6791 22.1838L83.8104 22.6722C83.8829 22.9408 84.0218 23.4243 84.1188 23.7467C84.5847 25.2875 85.0343 26.7936 85.2566 27.5561C85.3912 28.0181 85.5612 28.5896 85.6342 28.8259L85.7666 29.2557L87.2357 29.266C88.0432 29.2717 88.7048 29.2652 88.7048 29.2516C88.7048 29.2028 88.0917 27.2867 87.8623 26.6184C87.6514 26.0043 87.2564 24.8006 86.5453 22.6065C86.4112 22.1942 86.3023 21.8296 86.3023 21.7961C86.3023 21.7592 86.4025 21.6908 86.5578 21.6221C86.9262 21.4592 87.2662 21.2223 87.6013 20.8953C88.0498 20.4577 88.2732 20.0984 88.4775 19.4879C88.7298 18.7333 88.7843 18.2086 88.7843 16.5579C88.7843 14.8161 88.7222 14.2836 88.4143 13.3857C88.2323 12.8553 87.9844 12.4459 87.6144 12.0633C86.9529 11.3789 86.1644 10.9997 85.1046 10.8554C84.74 10.8058 84.2082 10.7946 82.2165 10.7946H79.7759V20.0349ZM50.8486 13.543C51.2579 13.6705 51.5962 13.9854 51.7506 14.3829C51.8224 14.5675 51.8431 14.7426 51.8763 15.4441C51.9204 16.3775 51.8891 18.5999 51.8275 18.8983C51.7339 19.3519 51.4457 19.7291 51.0474 19.9193C50.8718 20.0031 50.7499 20.0241 50.2431 20.0578C49.9145 20.0796 49.4386 20.0922 49.1853 20.0857L48.7248 20.074L48.7145 16.8115C48.7088 15.0172 48.7136 13.5251 48.725 13.4958C48.7567 13.4149 50.5664 13.4552 50.8486 13.543ZM62.025 13.4937C62.7928 13.5973 63.2423 14.0873 63.3273 14.9127C63.3475 15.1083 63.3578 16.0682 63.3508 17.0459C63.3377 18.7888 63.3355 18.8288 63.2445 19.0819C63.0679 19.5719 62.6925 19.9155 62.2239 20.0156C62.1105 20.0398 61.6103 20.0699 61.1128 20.0824L60.2072 20.1052L60.1843 18.7026C60.1652 17.508 60.169 13.6488 60.1897 13.5002C60.1979 13.4371 61.5694 13.4322 62.025 13.4937ZM84.5602 13.4921C85.262 13.5899 85.7252 14.0633 85.8282 14.7869C85.8511 14.9508 85.8609 15.7661 85.8516 16.7687C85.8364 18.345 85.8293 18.4896 85.7552 18.7068C85.5857 19.201 85.3089 19.484 84.855 19.6264C84.5989 19.7069 84.4926 19.7151 83.666 19.7185L82.7587 19.7224L82.7484 16.5869L82.738 13.4514L83.5091 13.4522C83.933 13.4526 84.406 13.4706 84.5602 13.4921Z" fill="#19182C"/>
<path fill-rule="evenodd" clip-rule="evenodd" d="M92.5019 11.8069C93.134 11.1431 93.7955 10.82 94.9327 10.6198C95.2504 10.5639 95.622 10.527 95.8901 10.5247C96.6743 10.5181 97.7537 10.737 98.3346 11.0203C98.965 11.3276 99.5023 11.8537 99.8423 12.4963C100.339 13.4356 100.516 14.3769 100.517 16.078V16.7314L99.0855 16.7422C98.2981 16.7481 97.6317 16.7466 97.6039 16.7389C97.5657 16.7282 97.5537 16.487 97.5537 15.7035C97.5532 14.5611 97.5216 14.2829 97.3521 13.9363C97.1096 13.4402 96.708 13.2195 95.9893 13.1874C95.2063 13.1523 94.7502 13.3832 94.4461 13.9687C94.2778 14.2933 94.2309 14.6553 94.2309 15.633C94.2314 16.38 94.244 16.5689 94.3104 16.841C94.5235 17.7077 94.9077 18.0212 96.525 18.6484C97.605 19.0672 97.8709 19.1829 98.2452 19.3961C99.3274 20.0117 99.9622 20.7797 100.331 21.9185C100.483 22.3867 100.558 22.9572 100.585 23.8248C100.676 26.8565 99.7039 28.7019 97.7063 29.2914C96.5119 29.6439 95.148 29.6297 93.9933 29.2528C93.3623 29.0466 92.9792 28.8085 92.4943 28.3206C91.9445 27.768 91.5625 26.9524 91.3838 25.952C91.2731 25.3322 91.2203 23.2336 91.314 23.1757C91.3434 23.1573 92.0033 23.142 92.7793 23.1416L94.1906 23.1411L94.1911 24.2057C94.1917 25.5226 94.2418 25.8723 94.493 26.292C94.6194 26.5038 94.7927 26.6431 95.1115 26.79C95.3605 26.9044 95.3954 26.9098 95.8923 26.9102C96.544 26.9107 96.7767 26.8349 97.1042 26.5154C97.545 26.0852 97.6556 25.6493 97.6513 24.3522C97.648 23.3157 97.5875 22.9497 97.3467 22.5089C97.0034 21.8796 96.7249 21.7078 94.6712 20.8552C93.6255 20.421 93.1917 20.1655 92.6605 19.6705C92.0796 19.1286 91.6475 18.3389 91.4704 17.4953C91.2007 16.2115 91.3091 14.2006 91.7042 13.1456C91.9101 12.5955 92.1766 12.1487 92.5019 11.8069ZM103.119 10.8353L103.91 10.8247C104.345 10.8188 106.152 10.8141 107.924 10.8141H111.148L111.168 12.1034C111.179 12.8126 111.182 13.4062 111.175 13.4226C111.168 13.439 110.009 13.4517 108.6 13.4508C107.192 13.4499 106.024 13.4576 106.007 13.468C105.99 13.4784 105.979 13.5888 105.982 13.7133C105.986 13.8379 105.992 15.0079 105.995 16.3133L106.003 18.6869H108.204H110.407V19.7906C110.408 20.3978 110.419 20.9867 110.433 21.0996L110.458 21.3047H108.204H105.95L105.976 21.7638C105.991 22.0163 106.003 23.1825 106.004 24.3554C106.005 25.5283 106.017 26.5261 106.029 26.5727L106.052 26.6574H108.61H111.168V27.785C111.168 28.4053 111.179 28.9943 111.193 29.0941L111.218 29.2756L107.179 29.2657L103.14 29.2557L103.13 20.0455L103.119 10.8353ZM113.77 10.834L117.704 10.8238C119.868 10.8183 121.955 10.8094 122.342 10.8041L123.047 10.7945L123.073 11.6443C123.088 12.1117 123.099 12.7095 123.1 12.9728V13.4514H121.477H119.855L119.857 21.3691C119.857 25.7238 119.853 29.2912 119.847 29.2965C119.841 29.3019 119.188 29.2949 118.396 29.281L116.957 29.2557L116.953 28.4743C116.951 28.0445 116.946 24.4885 116.942 20.5721L116.933 13.4514H115.352C114.482 13.4514 113.77 13.4382 113.769 13.4221C113.765 13.3376 113.761 10.9962 113.765 10.9217L113.77 10.834ZM125.622 10.8368L125.952 10.8236C126.134 10.8164 126.781 10.8069 127.391 10.8025L128.5 10.7945L128.516 18.052C128.533 25.9269 128.522 25.5479 128.751 26.0341C128.807 26.1533 128.913 26.3165 128.985 26.397C129.511 26.9816 130.749 27.0873 131.4 26.603C131.763 26.3325 132.001 25.9003 132.069 25.388C132.09 25.2321 132.106 22.0401 132.107 17.9777L132.109 10.8412L132.318 10.8236C132.434 10.814 133.083 10.803 133.76 10.7993L134.991 10.7924V18.0182C134.991 24.9403 134.988 25.265 134.914 25.7471C134.791 26.5573 134.666 26.9652 134.391 27.4662C133.906 28.3466 133.211 28.9182 132.234 29.2409C131.065 29.6267 129.648 29.6297 128.41 29.2491C128 29.123 127.715 28.983 127.384 28.7454C126.457 28.0812 125.931 27.1171 125.704 25.6666C125.624 25.1493 125.622 25.0094 125.622 17.9882V10.8368ZM137.924 10.8235L137.674 10.8373L137.684 20.0435L137.694 29.2497L139.125 29.2667L140.557 29.2838V26.0171V22.7503L141.267 22.75C143.317 22.749 144.391 22.4514 145.276 21.639C145.857 21.1066 146.275 20.3351 146.458 19.4626C146.62 18.6851 146.643 18.3726 146.643 16.8846C146.643 15.0221 146.581 14.3509 146.338 13.601C145.957 12.4234 145.155 11.5561 144.064 11.1426C143.228 10.8259 142.86 10.7928 140.278 10.802C139.121 10.8062 138.062 10.8158 137.924 10.8235ZM143.532 14.2607C143.334 13.8706 143.011 13.6183 142.578 13.5138C142.329 13.4538 141.579 13.4217 140.907 13.4423L140.516 13.4542L140.522 15.9826C140.525 17.3733 140.539 18.8715 140.552 19.3121L140.577 20.113L141.457 20.1001C142.371 20.0866 142.658 20.0477 142.964 19.896C143.273 19.7421 143.518 19.4079 143.667 18.9392C143.734 18.7266 143.74 18.5392 143.74 16.7724C143.74 14.7028 143.737 14.6628 143.532 14.2607Z" fill="#19182C"/>
</svg>
