<svg width="270" height="54" viewBox="0 0 270 54" fill="none" xmlns="http://www.w3.org/2000/svg">
<path d="M12.5108 6.61589V3.31217V0C12.5108 0 13.5501 0.498445 14.3951 0.973288C14.7935 1.19716 15.8634 1.79859 16.7727 2.30991C17.682 2.82116 19.0708 3.59933 19.8588 4.03913C22.7192 5.6356 28.2996 8.7671 29.4256 9.40773C30.2924 9.90088 30.558 10.0843 30.4947 10.1459C30.4484 10.1909 30.3872 10.2278 30.3588 10.2278C30.3011 10.2278 30.2166 10.2745 27.5742 11.7671C25.305 13.049 24.7034 13.3705 24.5694 13.373C24.4817 13.3745 24.178 13.2135 22.6878 12.3751C22.5666 12.3069 22.1863 12.0893 21.8428 11.8917C21.4993 11.6941 20.9537 11.3893 20.6304 11.2144C20.0893 10.9217 18.3004 9.92184 15.3398 8.25742C14.6932 7.89394 14.0484 7.53311 13.907 7.45572C13.0647 6.99461 12.5108 6.61589 12.5108 6.61589ZM0.439453 13.3391V6.83862C0.439453 6.83862 1.81962 7.47088 4.28105 8.85729C5.43285 9.506 6.75548 10.2444 7.22024 10.4982C7.685 10.7519 8.09833 10.9837 8.13874 11.0132C8.17916 11.0427 9.23726 11.6395 10.4901 12.3393L14.4948 14.5764C16.9357 15.9403 20.3285 17.8344 22.3939 18.9863C23.3638 19.5272 24.2587 20.0297 24.3825 20.1029L24.6075 20.2362L25.3744 19.8005C25.7962 19.5609 27.5963 18.553 29.3745 17.5606C32.7762 15.6621 40.4463 11.3645 41.5721 10.7261C41.9358 10.5199 42.3409 10.3069 42.4722 10.2528L42.7111 10.1544V13.4724C42.7111 16.0407 42.6903 16.8067 42.6192 16.8624C42.5687 16.902 41.7834 17.3514 40.8741 17.861C39.9647 18.3706 37.6832 19.6516 35.804 20.7077C32.1261 22.7746 30.3961 23.7448 26.9501 25.6722L24.7463 26.9049L24.457 26.8206C24.1666 26.7359 22.3038 25.7044 11.1515 19.4523C7.83747 17.5946 3.69321 15.2732 3.69321 15.2732L0.439453 13.3391ZM19.5282 29.8754C21.5084 28.7696 23.3767 27.7133 23.6798 27.5281C23.9829 27.3427 24.3053 27.1884 24.3962 27.185L24.5615 27.1788V28.7864C24.5615 30.3764 24.5597 30.3951 24.3962 30.4937C24.0674 30.6918 16.0687 35.1722 15.8395 35.2865C15.7101 35.3511 15.5486 35.404 15.4806 35.404C15.4126 35.404 14.748 35.0446 14.0037 34.6054C12.8702 33.9366 12.6665 33.7913 12.7493 33.7107C12.8538 33.6091 13.7385 33.1085 19.5282 29.8754ZM0.460101 40.5481V37.2291V33.91L0.781428 34.0484C1.20004 34.2286 2.71027 35.0409 4.09735 35.8317C4.70356 36.1774 6.09233 36.9583 7.1835 37.5673L10.1227 39.2075C10.6481 39.5007 11.5905 40.0256 12.2169 40.374C12.8433 40.7224 13.8225 41.2755 14.393 41.603C14.9634 41.9306 15.4665 42.1987 15.5109 42.1987C15.5554 42.1987 15.8994 42.0259 16.2752 41.8146C16.6511 41.6034 17.3384 41.2227 17.8026 40.9688C19.0907 40.2638 25.2705 36.8189 26.457 36.1442C27.4605 35.5737 27.7536 35.4665 27.9085 35.613C27.9994 35.6989 30.0481 36.8471 30.3113 36.9596C30.4225 37.0071 30.5134 37.0766 30.5134 37.1141C30.5134 37.1781 30.1307 37.4781 30.0492 37.4781C30.0076 37.4781 28.2111 38.489 27.3538 38.9948C27.0507 39.1736 26.4224 39.5277 25.9577 39.7817C25.4929 40.0357 24.6828 40.4849 24.1574 40.7801C23.632 41.0752 22.5243 41.6954 21.6958 42.1582C20.8673 42.621 20.0407 43.0896 19.8588 43.1995C19.677 43.3094 19.3215 43.5026 19.0689 43.6288C18.8163 43.755 18.6097 43.883 18.6097 43.9132C18.6097 43.976 18.7798 44.0737 22.1095 45.924C23.4484 46.6681 24.5831 47.2768 24.6309 47.2768C24.6787 47.2768 25.6003 46.781 26.6788 46.1751C29.8434 44.397 38.7505 39.4078 39.1105 39.2114C39.8937 38.7845 41.0349 38.1419 41.6823 37.7633C42.0663 37.5388 42.4542 37.3325 42.5443 37.3049L42.7081 37.2549L42.728 40.5597L42.7478 43.8645L42.4539 44.0461C41.9671 44.3469 38.2624 46.4288 28.0151 52.1601C27.1058 52.6687 26.2461 53.1498 26.1046 53.2292L25.2891 53.6867C24.9821 53.859 24.6795 54 24.6169 54C24.4751 54 23.9201 53.7173 22.8926 53.1221C22.4566 52.8694 21.5213 52.341 20.8141 51.9479C18.8964 50.8817 18.688 50.7555 18.651 50.6384C18.6324 50.5794 18.6106 49.8874 18.6025 49.1007C18.5867 47.5583 18.5731 47.4199 18.4369 47.4199C18.3878 47.4199 17.7397 47.7578 16.9966 48.1709C16.2535 48.5839 15.5822 48.9219 15.5046 48.9219C15.3877 48.9219 14.8223 48.6409 14.3478 48.3472C14.1716 48.238 11.1063 46.5248 9.924 45.8747C9.3297 45.5479 8.71798 45.2016 8.56463 45.1053C8.4112 45.0089 7.59132 44.5448 6.74262 44.0738C5.89393 43.6029 4.68702 42.9294 4.06061 42.5773C3.43419 42.2251 2.77288 41.8555 2.59101 41.756C2.01375 41.4403 1.76194 41.2986 1.10305 40.9188L0.460101 40.5481Z" fill="#19182C"/>
<path fill-rule="evenodd" clip-rule="evenodd" d="M59.9277 23.5847C59.9515 35.4105 59.969 37.161 60.0691 37.6993C60.4452 39.7206 61.1203 41.0955 62.2962 42.2344C63.8222 43.7124 65.7631 44.3788 68.5387 44.3778C70.9572 44.377 72.7607 43.8408 74.2804 42.6712C75.3108 41.8781 76.0653 40.7908 76.5884 39.3455C77.1655 37.7506 77.1359 38.6068 77.1359 23.5311V10.1205L74.4369 10.1018L71.738 10.083L71.7182 23.6196L71.6984 37.1563L71.5327 37.5797C70.9591 39.0457 69.9587 39.6272 68.1674 39.5361C67.5514 39.5047 67.4048 39.4696 66.924 39.2383C66.1289 38.8558 65.7499 38.3837 65.4252 37.3712C65.3232 37.0531 65.3078 35.5147 65.2876 23.549L65.2648 10.0847H62.5827H59.9004L59.9277 23.5847ZM82.8815 10.1304C82.8185 10.1918 82.8148 39.9794 82.8775 42.1759L82.927 43.9054L85.5057 43.9283C86.924 43.9408 88.1107 43.9319 88.1428 43.9085C88.1749 43.8851 88.2215 41.2056 88.2465 37.9541L88.2919 32.0424L88.629 32.0375C91.2751 31.9992 92.8699 31.8489 93.9627 31.5348C95.9508 30.9634 97.6986 29.5122 98.4765 27.7867C98.7422 27.1976 99.0902 26.0511 99.2366 25.2834C99.3914 24.4718 99.4002 24.2385 99.3997 20.992C99.3991 17.715 99.3914 17.5199 99.231 16.7006C99.0464 15.757 98.6599 14.5768 98.3177 13.9112C97.2843 11.9015 95.1915 10.5565 92.5368 10.1961C91.8691 10.1054 90.8996 10.0847 87.3225 10.0847C84.9058 10.0847 82.9074 10.1053 82.8815 10.1304ZM103.919 26.9856V43.8941L106.507 43.932C107.931 43.9529 109.137 43.9543 109.189 43.9349C109.264 43.9069 109.283 42.7152 109.283 37.9711C109.283 34.7103 109.291 32.0411 109.301 32.0395C109.311 32.0379 110.097 32.0199 111.046 31.9994C114.02 31.9354 115.516 31.5928 117.015 30.6321C118.34 29.7824 119.257 28.605 119.794 27.0619C120.382 25.3758 120.452 24.7174 120.451 20.9232C120.45 18.304 120.432 17.8013 120.308 17.0225C119.878 14.3273 118.876 12.6045 117.054 11.4271C116.291 10.9341 116.156 10.8688 115.345 10.5986C113.939 10.1305 113.915 10.1287 108.677 10.1016L103.919 10.0771V26.9856ZM124.934 26.9996V43.9152L131.162 43.9209C134.587 43.9241 138.454 43.9565 138.454 43.9565L139.704 43.951L139.74 41.4682V39.0874L135.019 39.069L130.298 39.0506V34.1847V29.3188L134.174 29.3246C136.306 29.3278 138.343 29.3245 138.343 29.3245V26.9104L138.341 24.4967L134.32 24.4781L130.298 24.4597V19.704V14.9483H134.993C138.738 14.9483 139.695 14.9298 139.724 14.8568C139.744 14.8065 139.756 13.7203 139.75 12.4429L139.74 10.1205L132.337 10.1023L124.934 10.084V26.9996ZM145.215 27V43.9152H147.886H150.557L150.61 41.5533C150.639 40.2543 150.639 37.3244 150.61 35.0424L150.556 30.8934L151.467 30.9136L152.378 30.9337L152.619 31.8278C152.752 32.3195 153.007 33.2046 153.185 33.7947C154.04 36.6152 154.865 39.3723 155.273 40.7682C155.52 41.6139 155.832 42.66 155.966 43.0927L156.209 43.8794L158.905 43.8982C160.387 43.9086 161.601 43.8967 161.601 43.8719C161.601 43.7825 160.476 40.275 160.055 39.0516C159.668 37.9274 158.943 35.7239 157.638 31.7074C157.392 30.9528 157.192 30.2852 157.192 30.224C157.192 30.1564 157.376 30.0312 157.661 29.9055C158.337 29.6073 158.961 29.1736 159.576 28.5749C160.399 27.7739 160.809 27.1161 161.184 25.9986C161.647 24.6173 161.747 23.6567 161.747 20.635C161.747 17.4465 161.633 16.4717 161.068 14.8281C160.734 13.8571 160.279 13.1076 159.6 12.4072C158.386 11.1544 156.939 10.4602 154.994 10.1961C154.325 10.1053 153.349 10.0847 149.694 10.0847H145.215V27ZM92.1288 15.116C92.88 15.3493 93.5007 15.9258 93.7842 16.6534C93.9159 16.9914 93.9539 17.3119 94.0148 18.596C94.0958 20.3048 94.0382 24.3731 93.9252 24.9193C93.7535 25.7497 93.2246 26.4402 92.4937 26.7883C92.1713 26.9418 91.9476 26.9802 91.0175 27.0418C90.4146 27.0818 89.5411 27.1048 89.0763 27.093L88.2313 27.0715L88.2124 21.0993C88.2019 17.8146 88.2106 15.0832 88.2316 15.0295C88.2897 14.8814 91.6109 14.9552 92.1288 15.116ZM112.639 15.0257C114.048 15.2153 114.873 16.1123 115.029 17.6234C115.066 17.9813 115.085 19.7386 115.072 21.5284C115.048 24.7188 115.044 24.7921 114.877 25.2553C114.553 26.1523 113.864 26.7814 113.004 26.9646C112.796 27.0089 111.878 27.064 110.965 27.0869L109.303 27.1287L109.261 24.561C109.226 22.3742 109.233 15.3096 109.271 15.0377C109.286 14.9221 111.803 14.9132 112.639 15.0257ZM153.995 15.0227C155.283 15.2019 156.133 16.0684 156.322 17.393C156.364 17.693 156.382 19.1856 156.365 21.0208C156.337 23.9065 156.324 24.1711 156.188 24.5688C155.877 25.4734 155.369 25.9915 154.536 26.2522C154.066 26.3995 153.871 26.4146 152.354 26.4208L150.689 26.4278L150.67 20.6881L150.651 14.9483L152.066 14.9497C152.844 14.9505 153.712 14.9834 153.995 15.0227Z" fill="#19182C"/>
<path fill-rule="evenodd" clip-rule="evenodd" d="M168.568 11.9379C169.728 10.7229 170.942 10.1313 173.029 9.76494C173.612 9.66252 174.294 9.595 174.786 9.59085C176.225 9.57869 178.206 9.97937 179.272 10.498C180.429 11.0606 181.415 12.0237 182.039 13.1999C182.951 14.9195 183.276 16.6426 183.277 19.7565V20.9527L180.65 20.9724C179.205 20.9832 177.982 20.9805 177.931 20.9665C177.861 20.9469 177.839 20.5053 177.839 19.0711C177.838 16.9797 177.78 16.4705 177.469 15.8361C177.024 14.9279 176.287 14.5239 174.968 14.465C173.531 14.4008 172.694 14.8235 172.136 15.8954C171.827 16.4896 171.741 17.1522 171.741 18.942C171.742 20.3095 171.765 20.6552 171.887 21.1534C172.278 22.7398 172.983 23.3138 175.951 24.462C177.933 25.2286 178.421 25.4404 179.108 25.8306C181.094 26.9576 182.259 28.3635 182.935 30.4482C183.214 31.3052 183.353 32.3495 183.401 33.9377C183.568 39.4876 181.785 42.8657 178.119 43.9449C175.927 44.5901 173.424 44.5641 171.305 43.8741C170.147 43.4968 169.444 43.0609 168.554 42.1677C167.545 41.1562 166.844 39.6631 166.516 37.8317C166.313 36.6972 166.216 32.8555 166.388 32.7496C166.442 32.7158 167.653 32.6878 169.077 32.6871L171.667 32.6861L171.668 34.6351C171.669 37.0458 171.761 37.6859 172.222 38.4541C172.454 38.8419 172.772 39.0969 173.357 39.3658C173.814 39.5753 173.878 39.5852 174.79 39.5859C175.986 39.5868 176.413 39.4481 177.014 38.8631C177.823 38.0756 178.026 37.2777 178.018 34.9033C178.012 33.0058 177.901 32.3358 177.459 31.5289C176.829 30.3769 176.318 30.0624 172.549 28.5017C170.63 27.7068 169.834 27.2391 168.859 26.3329C167.793 25.341 167 23.8954 166.675 22.351C166.18 20.0009 166.379 16.3198 167.104 14.3886C167.482 13.3816 167.971 12.5637 168.568 11.9379ZM188.053 10.1593L189.504 10.1399C190.303 10.1292 193.618 10.1205 196.871 10.1205H202.786L202.823 12.4808C202.843 13.7789 202.849 14.8656 202.836 14.8957C202.823 14.9257 200.697 14.949 198.111 14.9472C195.526 14.9456 193.384 14.9598 193.353 14.9788C193.321 14.9977 193.3 15.1999 193.307 15.4278C193.313 15.6558 193.324 17.7976 193.331 20.1874L193.344 24.5324H197.385H201.427V26.5529C201.428 27.6643 201.449 28.7424 201.474 28.949L201.521 29.3245H197.384H193.248L193.296 30.1649C193.322 30.6271 193.345 32.7619 193.347 34.9091C193.349 37.0561 193.37 38.8827 193.393 38.968L193.434 39.1231H198.129H202.823V41.1873C202.823 42.3227 202.844 43.401 202.87 43.5837L202.916 43.9159L195.503 43.8977L188.09 43.8794L188.072 27.0194L188.053 10.1593ZM207.599 10.157L214.818 10.1384C218.789 10.1282 222.619 10.1119 223.33 10.1023L224.623 10.0847L224.671 11.6404C224.698 12.4959 224.719 13.5902 224.72 14.0722V14.9483H221.743H218.766L218.769 29.4423C218.77 37.414 218.762 43.9444 218.751 43.9542C218.74 43.9641 217.542 43.9512 216.089 43.9258L213.447 43.8794L213.44 42.449C213.437 41.6622 213.427 35.1527 213.419 27.9834L213.404 14.9483H210.501C208.905 14.9483 207.598 14.9242 207.596 14.8947C207.589 14.74 207.583 10.4539 207.59 10.3175L207.599 10.157ZM229.349 10.1621L229.955 10.138C230.289 10.1247 231.477 10.1073 232.596 10.0993L234.631 10.0847L234.661 23.3702C234.692 37.7859 234.672 37.092 235.092 37.9821C235.195 38.2002 235.388 38.4991 235.52 38.6464C236.486 39.7166 238.758 39.91 239.952 39.0235C240.619 38.5284 241.056 37.7372 241.181 36.7994C241.219 36.514 241.249 30.6707 241.25 23.2341L241.253 10.1701L241.638 10.138C241.851 10.1204 243.041 10.1003 244.284 10.0935L246.543 10.0809V23.3082C246.543 35.9798 246.537 36.5741 246.402 37.4567C246.175 38.9398 245.947 39.6866 245.441 40.6037C244.552 42.2153 243.277 43.2616 241.483 43.8524C239.338 44.5587 236.737 44.5642 234.466 43.8674C233.714 43.6365 233.19 43.3803 232.582 42.9454C230.881 41.7295 229.916 39.9646 229.5 37.3093C229.352 36.3623 229.349 36.1062 229.349 23.2534V10.1621ZM251.926 10.1377L251.466 10.1631L251.485 27.0158L251.503 43.8685L254.13 43.8997L256.757 43.9309V37.9509V31.9708L258.061 31.9702C261.823 31.9685 263.794 31.4237 265.418 29.9364C266.483 28.9618 267.251 27.5496 267.586 25.9524C267.885 24.5291 267.926 23.957 267.926 21.2332C267.926 17.8237 267.812 16.5949 267.367 15.2222C266.668 13.0665 265.196 11.4789 263.193 10.7219C261.659 10.1422 260.984 10.0816 256.245 10.0985C254.122 10.1061 252.178 10.1237 251.926 10.1377ZM262.217 16.4298C261.853 15.7157 261.261 15.2538 260.466 15.0626C260.009 14.9528 258.633 14.894 257.4 14.9317L256.683 14.9535L256.694 19.582C256.699 22.1277 256.724 24.8704 256.749 25.6768L256.794 27.143L258.41 27.1193C260.087 27.0947 260.614 27.0235 261.174 26.7458C261.741 26.464 262.192 25.8522 262.464 24.9942C262.587 24.605 262.599 24.2621 262.599 21.0278C262.599 17.2391 262.593 17.1659 262.217 16.4298Z" fill="#19182C"/>
</svg>
