<svg width="81" height="23" viewBox="0 0 81 23" fill="none" xmlns="http://www.w3.org/2000/svg">
<g clip-path="url(#clip0_265_7833)">
<path d="M0.103516 0.301514L9.3516 13.2891V22.4545H14.2845V13.2891L23.562 0.301514H17.4597L11.8327 8.22199L6.2057 0.301514H0.103516Z" fill="black"/>
<path fill-rule="evenodd" clip-rule="evenodd" d="M56.1914 0.301514V22.4545H61.1242V0.301514H56.1914Z" fill="black"/>
<path fill-rule="evenodd" clip-rule="evenodd" d="M75.9239 22.4547H80.8568V6.06858L75.9239 6.06318V7.14916C75.0082 6.53075 73.9725 6.09415 72.8747 5.87051C71.2396 5.53939 69.5411 5.70321 68.0021 6.34049C66.4514 6.98363 65.1304 8.06752 64.2075 9.45385C63.2736 10.8521 62.7739 12.4885 62.7696 14.1626C62.7642 15.2791 62.9862 16.3842 63.4091 17.42C63.8288 18.4513 64.4495 19.3916 65.2361 20.1876C66.017 20.976 66.9483 21.6045 67.9765 22.0369C69.2574 22.572 70.6542 22.781 72.0385 22.6448C73.4228 22.5085 74.7501 22.0314 75.8983 21.2572L75.9239 21.2399V22.4547ZM71.9374 10.2839C74.0805 10.2839 75.7741 11.9856 75.7741 14.1626C75.7711 14.9297 75.5365 15.6786 75.1002 16.3138C74.6639 16.9491 74.0456 17.442 73.3241 17.7297C72.609 18.0442 71.8079 18.1146 71.0477 17.9296C70.0909 17.7323 69.2435 17.1899 68.6714 16.4088C68.0993 15.6276 67.844 14.664 67.9553 13.7069C68.0667 12.7498 68.5368 11.8682 69.2735 11.235C70.0101 10.6018 70.9602 10.2626 71.9374 10.2839Z" fill="black"/>
<path fill-rule="evenodd" clip-rule="evenodd" d="M37.1915 14.1631C37.198 12.4849 37.7089 10.8461 38.6597 9.45391C39.6104 8.06164 40.9585 6.97826 42.5335 6.34054C44.1085 5.70282 45.84 5.53937 47.5092 5.87083C49.1785 6.20229 50.7106 7.01381 51.9122 8.20289C53.1139 9.39197 53.9311 10.9053 54.2607 12.5518C54.5902 14.1983 54.4174 15.9041 53.7641 17.4539C53.1107 19.0037 52.0061 20.3279 50.5897 21.2594C49.1732 22.1909 47.5085 22.6878 45.8058 22.6875C44.6716 22.6875 43.5486 22.4667 42.5012 22.0379C41.4538 21.6091 40.5026 20.9807 39.7023 20.1887C38.9019 19.3967 38.2681 18.4567 37.8372 17.4226C37.4064 16.3886 37.1869 15.2809 37.1915 14.1631ZM48.1917 17.1532C49.0587 16.4771 49.615 15.4309 49.615 14.2567C49.615 12.218 47.9381 10.5653 45.8696 10.5653C43.8012 10.5653 42.1243 12.218 42.1243 14.2567C42.1243 16.2954 43.8012 17.9481 45.8696 17.9481C46.7467 17.9481 47.5534 17.6509 48.1917 17.1532Z" fill="black"/>
<path fill-rule="evenodd" clip-rule="evenodd" d="M18.5567 14.1631C18.5632 12.4849 19.0741 10.8461 20.0249 9.45391C20.9757 8.06165 22.3237 6.97826 23.8987 6.34054C25.4738 5.70283 27.2052 5.53937 28.8745 5.87083C30.5437 6.2023 32.0758 7.01381 33.2775 8.20289C34.4791 9.39198 35.2963 10.9053 35.6259 12.5518C35.9555 14.1983 35.7827 15.9041 35.1293 17.4539C34.4759 19.0037 33.3713 20.3279 31.9549 21.2594C30.5385 22.1909 28.8738 22.6878 27.171 22.6875C26.0368 22.6875 24.9138 22.4667 23.8664 22.0379C22.819 21.6091 21.8678 20.9807 21.0675 20.1887C20.2671 19.3967 19.6333 18.4567 19.2025 17.4226C18.7716 16.3886 18.5522 15.2809 18.5567 14.1631ZM29.5569 17.1532C30.4239 16.4771 30.9802 15.4309 30.9802 14.2567C30.9802 12.218 29.3033 10.5653 27.2349 10.5653C25.1664 10.5653 23.4895 12.218 23.4895 14.2567C23.4895 16.2954 25.1664 17.9481 27.2349 17.9481C28.112 17.9481 28.9187 17.6509 29.5569 17.1532Z" fill="black"/>
</g>
<defs>
<clipPath id="clip0_265_7833">
<rect width="81" height="23" fill="white"/>
</clipPath>
</defs>
</svg>
