<svg width="83" height="41" viewBox="0 0 83 41" fill="none" xmlns="http://www.w3.org/2000/svg">
<path d="M24.4629 15.2803C25.9093 14.693 27.4993 14.5425 29.0322 14.8477C30.5652 15.1531 31.9725 15.9008 33.0762 16.9962C34.1796 18.0915 34.9307 19.4853 35.2334 21.002C35.5361 22.5187 35.3764 24.09 34.7764 25.5176C34.1763 26.9453 33.1621 28.1654 31.8613 29.0235C30.5606 29.8815 29.0315 30.3392 27.4678 30.3389C26.4262 30.3389 25.3945 30.1353 24.4326 29.7403C23.4709 29.3453 22.5972 28.7666 21.8623 28.0372C21.1273 27.3077 20.545 26.4418 20.1494 25.4893C19.7537 24.5368 19.5525 23.5161 19.5566 22.4864C19.5626 20.9405 20.0321 19.431 20.9053 18.1485C21.7785 16.866 23.0164 15.8678 24.4629 15.2803ZM41.5781 15.2803C43.0245 14.6929 44.6146 14.5424 46.1475 14.8477C47.6805 15.1531 49.0879 15.9008 50.1914 16.9962C51.2949 18.0915 52.0459 19.4854 52.3486 21.002C52.6512 22.5187 52.4916 24.09 51.8916 25.5176C51.2915 26.9453 50.2774 28.1654 48.9766 29.0235C47.6757 29.8815 46.1467 30.3392 44.583 30.3389C43.5414 30.3389 42.5097 30.1353 41.5479 29.7403C40.5861 29.3453 39.7124 28.7666 38.9775 28.0372C38.2426 27.3077 37.6604 26.4418 37.2646 25.4893C36.869 24.5368 36.6677 23.5161 36.6719 22.4864C36.6778 20.9405 37.1473 19.431 38.0205 18.1485C38.8936 16.866 40.1317 15.8678 41.5781 15.2803ZM64.9697 15.2803C66.3831 14.6933 67.9427 14.5427 69.4443 14.8477C70.4525 15.0537 71.4041 15.4558 72.2451 16.0255V15.0245L76.7754 15.0294V30.1241H72.2451V29.0049L72.2217 29.0215C71.1672 29.7347 69.9481 30.1743 68.6768 30.2999C67.4054 30.4253 66.1226 30.2322 64.9463 29.7393C64.0021 29.341 63.1468 28.7623 62.4297 28.0362C61.7073 27.3029 61.1364 26.4364 60.751 25.4864C60.3627 24.5325 60.1592 23.5146 60.1641 22.4864C60.168 20.9444 60.6268 19.4365 61.4844 18.1485C62.332 16.8714 63.5456 15.8728 64.9697 15.2803ZM13.3838 17.0137L18.5508 9.71686H24.1553L15.6348 21.6817V30.1241H11.1045V21.6817L2.61133 9.71686H8.21582L13.3838 17.0137ZM58.6514 30.1241H54.1211V9.71686H58.6514V30.1241ZM68.584 18.9131C67.6866 18.8935 66.8142 19.2059 66.1377 19.7891C65.4611 20.3724 65.0291 21.1848 64.9268 22.0665C64.8247 22.9479 65.0588 23.8353 65.584 24.5547C66.1094 25.2743 66.8879 25.7744 67.7666 25.9561C68.4648 26.1265 69.2007 26.0613 69.8574 25.7715C70.5199 25.5066 71.0876 25.0529 71.4883 24.4678C71.8889 23.8828 72.1046 23.1929 72.1074 22.4864C72.1074 20.481 70.5521 18.9133 68.584 18.9131ZM27.5264 19.1719C25.6269 19.1721 24.0871 20.6945 24.0869 22.5723C24.0869 24.4502 25.6268 25.9725 27.5264 25.9727C28.3318 25.9727 29.0731 25.6996 29.6592 25.2413C30.4554 24.6185 30.9668 23.654 30.9668 22.5723C30.9667 20.6944 29.4259 19.1719 27.5264 19.1719ZM44.6416 19.1719C42.7422 19.1721 41.2023 20.6945 41.2021 22.5723C41.2021 24.4503 42.7421 25.9726 44.6416 25.9727C45.447 25.9727 46.1882 25.6996 46.7744 25.2413C47.5707 24.6185 48.082 23.654 48.082 22.5723C48.0819 20.6944 46.5412 19.1719 44.6416 19.1719Z" fill="black"/>
</svg>
